<?xml version="1.0" encoding="utf-8"?>
<!-- Generator: Adobe Illustrator 17.0.2, SVG Export Plug-In . SVG Version: 6.00 Build 0)  -->
<!DOCTYPE svg PUBLIC "-//W3C//DTD SVG 1.1//EN" "http://www.w3.org/Graphics/SVG/1.1/DTD/svg11.dtd">
<svg version="1.1" id="Layer_1" xmlns="http://www.w3.org/2000/svg" xmlns:xlink="http://www.w3.org/1999/xlink" x="0px" y="0px"
	 width="428px" height="209px" viewBox="0 0 428 209" enable-background="new 0 0 428 209" xml:space="preserve">
<path fill="#FFFFFF" d="M30,65H9.18C7.694,65,7,63.491,7,62.14V51.07C7,49.719,7.694,49,9.18,49h58.999
	C69.664,49,71,49.719,71,51.07v11.07c0,1.351-1.336,2.86-2.821,2.86H48v75.445c0,1.352-1.692,2.555-3.043,2.555H32.401
	c-1.351,0-2.401-1.203-2.401-2.555V65z"/>
<path fill="#FFFFFF" d="M67.368,139.495l41.988-90.936c0.405-0.81,1.08-1.559,2.295-1.559h1.351c1.35,0,1.89,0.752,2.295,1.562
	l41.583,90.895c0.81,1.755-0.271,3.543-2.296,3.543h-11.745c-2.025,0-2.971-0.67-3.915-2.561L132.308,126H91.939l-6.615,14.439
	c-0.54,1.351-1.755,2.561-3.915,2.561H69.663C67.639,143,66.559,141.25,67.368,139.495z M125.692,111l-13.501-30h-0.405l-13.23,30
	H125.692z"/>
<path fill="#FFFFFF" d="M169,51.07c0-1.351,1.245-2.07,2.73-2.07h38.612c16.201,0,29.433,12.713,29.433,28.78
	c0,12.421-8.236,22.422-19.982,27.148l18.497,34.225c0.944,1.756,0,3.848-2.296,3.848h-14.176c-1.215,0-1.89-0.679-2.16-1.218
	L201.702,106H187v34.445c0,1.352-1.499,2.555-2.85,2.555h-12.42c-1.485,0-2.73-1.203-2.73-2.555V51.07z M208.857,92
	c7.156,0,13.366-6.277,13.366-13.838c0-7.155-6.21-13.162-13.366-13.162H187v27H208.857z"/>
<path fill="#FFFFFF" d="M329.555,139.495l41.988-90.936c0.404-0.81,1.08-1.559,2.295-1.559h1.35c1.351,0,1.891,0.752,2.296,1.562
	l41.583,90.895c0.81,1.755-0.271,3.543-2.295,3.543h-11.746c-2.025,0-2.971-0.67-3.916-2.561L394.494,126h-40.367l-6.616,14.439
	c-0.54,1.351-1.755,2.561-3.915,2.561H331.85C329.824,143,328.744,141.25,329.555,139.495z M387.879,111l-13.501-30h-0.405
	l-13.23,30H387.879z"/>
<g>
	<path fill="#FFFFFF" d="M7.061,179.974c0-0.295,0.235-0.56,0.56-0.56h7.632c3.536,0,6.424,2.769,6.424,6.276
		c0,2.711-1.797,4.98-4.361,6.011l4.038,7.484c0.206,0.384,0,0.855-0.501,0.855h-1.503c-0.265,0-0.412-0.148-0.471-0.265
		l-3.919-7.809H9.329v7.514c0,0.295-0.265,0.56-0.56,0.56H7.62c-0.324,0-0.56-0.265-0.56-0.56V179.974z M15.105,190.022
		c2.269,0,4.243-1.886,4.243-4.302c0-2.24-1.974-4.155-4.243-4.155H9.388v8.457H15.105z"/>
	<path fill="#FFFFFF" d="M23.707,199.275l8.958-19.831c0.089-0.177,0.236-0.324,0.501-0.324h0.295c0.265,0,0.412,0.148,0.5,0.324
		l8.899,19.831c0.177,0.383-0.059,0.766-0.5,0.766h-1.178c-0.266,0-0.443-0.177-0.501-0.324l-2.181-4.862h-10.46l-2.152,4.862
		c-0.059,0.148-0.235,0.324-0.5,0.324h-1.178C23.766,200.041,23.531,199.658,23.707,199.275z M37.704,193.028
		c-1.443-3.212-2.858-6.453-4.302-9.665h-0.235l-4.302,9.665H37.704z"/>
	<path fill="#FFFFFF" d="M46.072,179.65c0-0.295,0.265-0.531,0.56-0.531h0.737l13.289,16.561c0.029,0,0.029,0,0.06,0v-15.706
		c0-0.295,0.235-0.56,0.56-0.56h1.031c0.295,0,0.56,0.265,0.56,0.56v19.831c0,0.294-0.265,0.531-0.56,0.531h-0.531l-13.525-16.885
		h-0.03v16.03c0,0.295-0.235,0.56-0.56,0.56h-1.031c-0.295,0-0.56-0.265-0.56-0.56V179.65z"/>
	<path fill="#FFFFFF" d="M68.876,179.974c0-0.295,0.235-0.56,0.531-0.56h6.601c5.687,0,10.343,4.626,10.343,10.284
		c0,5.716-4.656,10.343-10.343,10.343h-6.601c-0.295,0-0.531-0.265-0.531-0.56V179.974z M75.536,198.007
		c4.833,0,8.339-3.447,8.339-8.31c0-4.832-3.506-8.28-8.339-8.28h-4.42v16.59H75.536z"/>
	<path fill="#FFFFFF" d="M99.962,179.119c5.893,0,10.608,4.744,10.608,10.637c0,5.894-4.715,10.58-10.608,10.58
		s-10.579-4.685-10.579-10.58C89.383,183.863,94.069,179.119,99.962,179.119z M99.962,198.273c4.685,0,8.545-3.831,8.545-8.517
		c0-4.684-3.86-8.575-8.545-8.575s-8.516,3.89-8.516,8.575C91.446,194.442,95.276,198.273,99.962,198.273z"/>
	<path fill="#FFFFFF" d="M117.404,179.531c0.06-0.236,0.295-0.412,0.531-0.412h0.472c0.206,0,0.442,0.148,0.5,0.324l5.835,16.236
		c0.06,0,0.089,0,0.148,0l5.746-16.236c0.06-0.177,0.295-0.324,0.501-0.324h0.472c0.235,0,0.471,0.177,0.53,0.412l3.802,19.802
		c0.088,0.412-0.089,0.707-0.531,0.707h-1.178c-0.236,0-0.472-0.206-0.531-0.412l-2.623-15.176c-0.029,0-0.089,0-0.118,0
		l-5.422,15.559c-0.059,0.177-0.323,0.324-0.5,0.324h-0.531c-0.177,0-0.442-0.148-0.501-0.324l-5.481-15.559
		c-0.029,0-0.088,0-0.117,0l-2.564,15.176c-0.029,0.206-0.295,0.412-0.531,0.412h-1.178c-0.442,0-0.619-0.295-0.531-0.707
		L117.404,179.531z"/>
	<path fill="#FFFFFF" d="M140.475,179.974c0-0.295,0.265-0.56,0.56-0.56h1.178c0.295,0,0.56,0.265,0.56,0.56v19.507
		c0,0.295-0.265,0.56-0.56,0.56h-1.178c-0.295,0-0.56-0.265-0.56-0.56V179.974z"/>
	<path fill="#FFFFFF" d="M147.458,196.947c0.148-0.177,0.294-0.383,0.442-0.56c0.295-0.383,0.62-0.62,1.032-0.266
		c0.206,0.177,2.357,2.24,4.98,2.24c2.387,0,3.949-1.503,3.949-3.241c0-2.033-1.768-3.241-5.156-4.656
		c-3.241-1.414-5.187-2.74-5.187-6.099c0-2.004,1.592-5.245,6.277-5.245c2.887,0,5.038,1.503,5.038,1.503
		c0.177,0.089,0.531,0.442,0.177,1.002c-0.117,0.177-0.235,0.383-0.354,0.56c-0.265,0.413-0.56,0.531-1.031,0.266
		c-0.206-0.118-2.063-1.355-3.861-1.355c-3.123,0-4.066,2.003-4.066,3.241c0,1.974,1.503,3.123,3.978,4.155
		c3.978,1.62,6.542,3.123,6.542,6.541c0,3.065-2.918,5.305-6.365,5.305c-3.478,0-5.835-2.033-6.218-2.387
		C147.399,197.743,147.104,197.507,147.458,196.947z"/>
	<path fill="#FFFFFF" d="M164.487,179.974c0-0.295,0.235-0.56,0.56-0.56h11.61c0.324,0,0.56,0.265,0.56,0.56v0.854
		c0,0.295-0.236,0.56-0.56,0.56h-9.901v7.19h8.457c0.294,0,0.56,0.266,0.56,0.56v0.855c0,0.323-0.266,0.56-0.56,0.56h-8.457v7.514
		h9.901c0.324,0,0.56,0.265,0.56,0.559v0.855c0,0.295-0.236,0.56-0.56,0.56h-11.61c-0.324,0-0.56-0.265-0.56-0.56V179.974z"/>
	<path fill="#FFFFFF" d="M181.931,179.974c0-0.295,0.235-0.56,0.531-0.56h6.601c5.687,0,10.343,4.626,10.343,10.284
		c0,5.716-4.656,10.343-10.343,10.343h-6.601c-0.295,0-0.531-0.265-0.531-0.56V179.974z M188.59,198.007
		c4.833,0,8.339-3.447,8.339-8.31c0-4.832-3.506-8.28-8.339-8.28h-4.42v16.59H188.59z"/>
	<path fill="#FFFFFF" d="M219.616,179.119c2.976,0,5.128,1.032,7.131,2.741c0.236,0.235,0.266,0.589,0.029,0.825l-0.795,0.795
		c-0.236,0.295-0.471,0.266-0.766-0.029c-1.532-1.326-3.624-2.21-5.628-2.21c-4.655,0-8.221,3.919-8.221,8.487
		c0,4.538,3.566,8.457,8.221,8.457c2.564,0,4.067-1.031,5.628-2.21c0.295-0.235,0.531-0.206,0.707-0.088l0.884,0.795
		c0.235,0.177,0.176,0.589-0.03,0.795c-2.003,1.946-4.538,2.859-7.161,2.859c-5.893,0-10.637-4.685-10.637-10.58
		C208.978,183.863,213.722,179.119,219.616,179.119z"/>
	<path fill="#FFFFFF" d="M231.311,179.974c0-0.295,0.235-0.56,0.56-0.56h1.149c0.295,0,0.56,0.265,0.56,0.56v18.093h8.487
		c0.324,0,0.56,0.265,0.56,0.559v0.855c0,0.295-0.235,0.56-0.56,0.56h-10.196c-0.324,0-0.56-0.265-0.56-0.56V179.974z"/>
	<path fill="#FFFFFF" d="M245.779,179.974c0-0.295,0.265-0.56,0.56-0.56h1.178c0.295,0,0.56,0.265,0.56,0.56v19.507
		c0,0.295-0.265,0.56-0.56,0.56h-1.178c-0.295,0-0.56-0.265-0.56-0.56V179.974z"/>
	<path fill="#FFFFFF" d="M254.088,179.65c0-0.295,0.265-0.531,0.56-0.531h0.737l13.289,16.561c0.029,0,0.029,0,0.06,0v-15.706
		c0-0.295,0.236-0.56,0.56-0.56h1.031c0.295,0,0.56,0.265,0.56,0.56v19.831c0,0.294-0.265,0.531-0.56,0.531h-0.531l-13.526-16.885
		h-0.029v16.03c0,0.295-0.236,0.56-0.56,0.56h-1.031c-0.295,0-0.56-0.265-0.56-0.56V179.65z"/>
	<path fill="#FFFFFF" d="M276.893,179.974c0-0.295,0.265-0.56,0.56-0.56h1.178c0.295,0,0.56,0.265,0.56,0.56v19.507
		c0,0.295-0.265,0.56-0.56,0.56h-1.178c-0.295,0-0.56-0.265-0.56-0.56V179.974z"/>
	<path fill="#FFFFFF" d="M294.336,179.119c2.976,0,5.128,1.032,7.131,2.741c0.236,0.235,0.266,0.589,0.029,0.825l-0.795,0.795
		c-0.236,0.295-0.471,0.266-0.766-0.029c-1.532-1.326-3.624-2.21-5.628-2.21c-4.655,0-8.221,3.919-8.221,8.487
		c0,4.538,3.566,8.457,8.221,8.457c2.564,0,4.067-1.031,5.628-2.21c0.295-0.235,0.531-0.206,0.707-0.088l0.883,0.795
		c0.236,0.177,0.177,0.589-0.029,0.795c-2.003,1.946-4.538,2.859-7.161,2.859c-5.893,0-10.637-4.685-10.637-10.58
		C283.699,183.863,288.443,179.119,294.336,179.119z"/>
	<path fill="#FFFFFF" d="M303.204,199.275l8.958-19.831c0.089-0.177,0.236-0.324,0.501-0.324h0.295c0.265,0,0.412,0.148,0.5,0.324
		l8.899,19.831c0.177,0.383-0.059,0.766-0.5,0.766h-1.178c-0.266,0-0.443-0.177-0.501-0.324l-2.181-4.862h-10.46l-2.152,4.862
		c-0.059,0.148-0.235,0.324-0.5,0.324h-1.178C303.262,200.041,303.027,199.658,303.204,199.275z M317.201,193.028
		c-1.443-3.212-2.858-6.453-4.302-9.665h-0.236l-4.302,9.665H317.201z"/>
	<path fill="#FFFFFF" d="M325.567,179.974c0-0.295,0.236-0.56,0.56-0.56h1.149c0.295,0,0.56,0.265,0.56,0.56v18.093h8.487
		c0.324,0,0.56,0.265,0.56,0.559v0.855c0,0.295-0.236,0.56-0.56,0.56h-10.196c-0.324,0-0.56-0.265-0.56-0.56V179.974z"/>
	<path fill="#FFFFFF" d="M349.492,181.388h-5.127c-0.324,0-0.56-0.265-0.56-0.56v-0.854c0-0.295,0.235-0.56,0.56-0.56h12.494
		c0.324,0,0.56,0.265,0.56,0.56v0.854c0,0.295-0.235,0.56-0.56,0.56h-5.127v18.093c0,0.295-0.265,0.56-0.56,0.56h-1.12
		c-0.294,0-0.56-0.265-0.56-0.56V181.388z"/>
	<path fill="#FFFFFF" d="M360.659,179.974c0-0.295,0.236-0.56,0.56-0.56h7.632c3.536,0,6.424,2.769,6.424,6.276
		c0,2.711-1.797,4.98-4.361,6.011l4.038,7.484c0.206,0.384,0,0.855-0.501,0.855h-1.503c-0.265,0-0.412-0.148-0.471-0.265
		l-3.919-7.809h-5.628v7.514c0,0.295-0.265,0.56-0.56,0.56h-1.149c-0.324,0-0.56-0.265-0.56-0.56V179.974z M368.704,190.022
		c2.269,0,4.243-1.886,4.243-4.302c0-2.24-1.974-4.155-4.243-4.155h-5.717v8.457H368.704z"/>
	<path fill="#FFFFFF" d="M380.134,179.974c0-0.295,0.265-0.56,0.56-0.56h1.178c0.295,0,0.56,0.265,0.56,0.56v19.507
		c0,0.295-0.265,0.56-0.56,0.56h-1.178c-0.295,0-0.56-0.265-0.56-0.56V179.974z"/>
	<path fill="#FFFFFF" d="M385.614,199.275l8.958-19.831c0.089-0.177,0.236-0.324,0.501-0.324h0.295c0.265,0,0.412,0.148,0.5,0.324
		l8.9,19.831c0.176,0.383-0.06,0.766-0.501,0.766h-1.178c-0.266,0-0.443-0.177-0.501-0.324l-2.181-4.862h-10.46l-2.151,4.862
		c-0.06,0.148-0.236,0.324-0.501,0.324h-1.178C385.673,200.041,385.437,199.658,385.614,199.275z M399.611,193.028
		c-1.444-3.212-2.858-6.453-4.302-9.665h-0.235l-4.302,9.665H399.611z"/>
	<path fill="#FFFFFF" d="M407.978,179.974c0-0.295,0.236-0.56,0.56-0.56h1.149c0.295,0,0.56,0.265,0.56,0.56v18.093h8.487
		c0.324,0,0.56,0.265,0.56,0.559v0.855c0,0.295-0.236,0.56-0.56,0.56h-10.196c-0.324,0-0.56-0.265-0.56-0.56V179.974z"/>
</g>
<g>
	<path fill="#023550" d="M358.474,5h-20.021c-1.766,0-2.945,0.9-3.336,1.881L297.433,91h-1.374l-19.296-43h-27.525l43.091,93.848
		c0.589,1.176,1.57,2.152,3.338,2.152h1.962c1.766,0,2.749-0.977,3.336-2.152L361.81,9.929C362.987,7.377,361.417,5,358.474,5z"/>
	<g>
		<path fill="#023550" d="M258,66h26.774l-9.786-21.993c-0.387-0.97-1.551-2.007-3.295-2.007H251.92
			c-2.907,0-4.397,2.426-3.234,4.946L258,67.087V66z"/>
	</g>
</g>
<rect x="7.812" y="162" fill="#FFFFFF" stroke="#FFFFFF" stroke-width="2" stroke-miterlimit="10" width="410.375" height="2"/>
</svg>
