<svg xmlns="http://www.w3.org/2000/svg" xmlns:xlink="http://www.w3.org/1999/xlink" width="328.028" height="160.831" viewBox="0 0 328.028 160.831"><path fill="#002945" d="M220.152 55.873h-35.44c-2.774.91-4.162 2.536-4.162 4.88v1.29c.91 2.775 2.536 4.16 4.88 4.16h12.052V98.21c-.355 2.163-2.224 3.816-4.487 3.816-1.908 0-3.54-1.173-4.218-2.837h-.007c-2.504-6.37-7.452-18.56-14.847-36.578-1.363-4.495-3.23-6.744-5.596-6.744h-1.292c-1.075 0-2.32.72-3.73 2.153-5.836 14.804-9.614 24.61-11.336 29.415-1.31 3.214-2.41 5.966-3.3 8.26-.81 1.26-2.22 2.094-3.83 2.094-2.17 0-3.98-1.517-4.44-3.547v-.637c-1.055-2.772-2.73-4.16-5.02-4.16-1.557 0-2.945.62-4.16 1.866-2.75 5.262-6.53 7.892-11.338 7.892-2.942 0-5.62-1.1-8.035-3.3-2.58-1.96-3.873-5.644-3.873-11.048V80.55c0-3.18.286-5.427.86-6.743 2.51-5.07 6.194-7.606 11.05-7.606 3.753 0 7.005 1.724 9.756 5.168 1.29 2.965 3.11 4.448 5.453 4.448h1.148c2.776-1.004 4.164-2.726 4.164-5.166v-.144c0-.817-.288-1.82-.862-3.017-4.973-7.75-11.286-11.625-18.94-11.625h-1.434c-3.567 0-7.2 1.054-10.91 3.158-4.25 3-7.22 6.406-8.92 10.217-.823 1.177-2.185 1.948-3.73 1.948-2.132 0-3.917-1.468-4.414-3.446l-.097-.07c-.48-1.262-1.205-2.613-2.194-4.058-5.022-5.166-11-7.75-17.936-7.75H68.24c-2.68 0-5.692.575-9.04 1.723-7.844 3.42-11.765 8.01-11.765 13.774v1.29c0 5.12 2.773 9.14 8.322 12.056 2.557 1.147 6.72 2.2 12.482 3.156 8.8.933 13.2 2.655 13.2 5.166v.72c-1.007 3.035-4.59 4.804-10.76 5.31h-.58l-.575.14-.573-.143h-.43l-2.01-.144c-5.93-1.293-8.895-3.16-8.895-5.6-.957-2.58-2.63-3.872-5.022-3.872-1.223 0-2.24.325-3.05.975-1.056.846-1.76 2.242-2.11 4.19 0 .07.005.14.006.212.01.325.038.653.09.983-.124 1.474-1.357 2.633-2.863 2.633-1.054 0-1.974-.57-2.474-1.42l-.062.058c-2.692-6.78-7.362-18.264-14.01-34.46-1.362-4.495-3.23-6.744-5.595-6.744h-1.292c-1.076 0-2.32.718-3.73 2.153C11.67 72.83 7.89 82.63 6.17 87.44 2.055 97.556 0 103.104 0 104.085v1.29c.908 2.775 2.534 4.162 4.878 4.162h1.004c1.292 0 2.63-.91 4.018-2.726 3.252-8.8 5.022-13.29 5.31-13.48h14.204c2.01 5.333 3.252 8.394 3.73 9.183 1.22 4.688 3.23 7.03 6.027 7.03h1.3c.687-.225 1.29-.494 1.807-.81.66-.4 1.18-.87 1.564-1.414.526-.75.79-1.634.79-2.655v-.862c0-1.843 1.494-3.337 3.337-3.337.78 0 1.493.266 2.06.71.646.86 1.41 1.738 2.3 2.628 4.853 3.826 10.162 5.74 15.926 5.74h2.726c2.68 0 5.69-.575 9.04-1.723 7.843-3.42 11.766-8.01 11.766-13.773v-1.29c0-5.12-2.776-9.137-8.324-12.055-2.56-1.146-6.72-2.2-12.482-3.155-8.8-.93-13.2-2.655-13.2-5.166v-.717c1.005-3.04 4.592-4.81 10.762-5.31h.573l.575-.146.574.144h.43c6.146.55 9.733 2.27 10.76 5.164.837 2.87 2.51 4.305 5.02 4.305h.146c1.52 0 2.716-.49 3.59-1.457.788-.65 1.79-1.046 2.89-1.046 2.477 0 4.488 1.98 4.55 4.443h.006v10.25c0 3.565 1.053 7.2 3.157 10.906 5 7.08 11.12 10.618 18.367 10.618h1.435c4.903 0 9.543-1.817 13.92-5.452 1.446-1.455 2.624-2.77 3.537-3.944.83-.873 1.997-1.42 3.296-1.42 2.518 0 4.558 2.04 4.558 4.558 0 .062-.003.122-.006.183-.07.282-.106.49-.106.62v1.29c.91 2.775 2.536 4.162 4.88 4.162h1.004c1.29 0 2.63-.91 4.018-2.728 3.25-8.8 5.022-13.297 5.308-13.49h14.206c2.006 5.334 3.25 8.395 3.73 9.184 1.22 4.69 3.23 7.03 6.024 7.03h1.292c2.11-.69 3.416-1.8 3.92-3.323.79-1.357 2.253-2.27 3.936-2.27 1.498 0 2.822.724 3.65 1.84.932 2.5 2.51 3.754 4.735 3.754h.575c.67 0 1.198-.096 1.58-.288 2.296-.837 3.444-2.893 3.444-6.17v-36.87h12.77c2.772-.908 4.16-2.534 4.16-4.878v-1.29c-.91-2.775-2.535-4.163-4.88-4.163zM28.697 85.43H15.64l-.144-.142h-.144L21.81 68.5h.286l6.744 16.788-.143.143zm145.8 0h-13.06l-.143-.142h-.142l6.456-16.788h.288l6.744 16.788-.144.143z"/><path fill="#36A9E1" d="M324.855 73.43c-1.242-1.282-2.715-2.205-4.29-2.77-1.58-.59-3.265-.814-4.928-.67l.12-.115c-.267.08-.524.134-.786.2-.48.07-.95.162-1.42.295-3.025.48-5.656-.042-7.382-1.725-1.624-1.78-2.06-4.427-1.48-7.434.148-.46.255-.94.34-1.41.075-.26.138-.515.226-.777l-.12.115c.39-3.253-.633-6.648-3.09-9.187-3.252-3.36-8.09-4.264-12.192-2.672-2.666.262-4.97-.31-6.534-1.834-1.625-1.78-2.06-4.427-1.48-7.434.147-.467.254-.94.34-1.42.075-.26.138-.514.226-.776l-.12.115c.334-2.79-.37-5.68-2.123-8.048-.334-.474-.707-.928-1.123-1.358-3.36-3.47-8.408-4.32-12.593-2.504-2.46.15-4.58-.442-6.05-1.87-1.623-1.78-2.06-4.427-1.48-7.434.15-.466.256-.94.34-1.42.076-.26.14-.514.227-.776l-.12.116c.39-3.256-.632-6.65-3.09-9.19-4.33-4.477-11.472-4.595-15.95-.263-4.476 4.332-4.594 11.474-.262 15.95 3.188 3.296 7.895 4.22 11.945 2.757 2.77-.322 5.163.25 6.773 1.822 1.47 1.61 1.977 3.927 1.63 6.582-.244.63-.43 1.28-.555 1.933-.224.986-.316 1.996-.272 3l-.005-.004.003.02c.048 1.083.253 2.16.612 3.196.224 2.6-.355 4.845-1.85 6.376-1.78 1.625-4.43 2.06-7.435 1.48-.465-.147-.94-.254-1.417-.34-.26-.074-.515-.137-.777-.225l.113.12c-3.254-.39-6.65.63-9.188 3.09-2.24 2.165-3.39 5.04-3.435 7.93-.07 2.91.984 5.85 3.17 8.11 3.19 3.29 7.895 4.216 11.945 2.753 2.772-.32 5.165.25 6.775 1.823 1.518 1.66 2.01 4.072 1.6 6.832-1.047 2.622-1.076 5.56-.073 8.202.265 2.67-.308 4.98-1.833 6.544-1.78 1.624-4.425 2.06-7.432 1.48l-.036-.01c-.13-.04-.26-.078-.393-.113l-.044-.01c-.314-.08-.628-.15-.944-.205-.26-.074-.514-.137-.776-.226l.116.12c-3.254-.39-6.65.633-9.19 3.09-4.475 4.33-4.593 11.473-.26 15.95 1.405 1.452 3.107 2.443 4.917 2.975.09.03.18.055.27.08.02.006.04.01.06.018 2.234.605 4.616.514 6.807-.28 2.77-.32 5.164.25 6.774 1.824 1.518 1.66 2.01 4.07 1.6 6.83-1.03 2.583-1.074 5.472-.118 8.082.276 2.69-.293 5.015-1.827 6.587-1.78 1.625-4.43 2.06-7.436 1.48-.465-.147-.94-.254-1.417-.34-.26-.075-.514-.138-.776-.226l.116.12c-3.253-.39-6.65.634-9.187 3.09-4.478 4.33-4.596 11.474-.263 15.95 4.334 4.478 11.476 4.596 15.95.264 3.298-3.19 4.22-7.895 2.76-11.945-.323-2.773.25-5.166 1.82-6.776 1.63-1.49 3.99-1.99 6.69-1.62.785.314 1.598.535 2.424.66 3.42.59 7.064-.403 9.75-3 3.285-3.177 4.22-7.863 2.78-11.903l-.075-.22c-.32-2.77.253-5.163 1.824-6.773 1.547-1.412 3.75-1.937 6.275-1.667 3.018 1.337 6.507 1.286 9.496-.167l.048-.024.134-.07c1.042-.507 2.025-1.184 2.904-2.035.726-.7 1.337-1.48 1.834-2.31 1.78-2.933 2.105-6.514.958-9.69-.322-2.772.25-5.165 1.822-6.775 1.652-1.51 4.05-2.004 6.793-1.6.26.1.52.192.786.273 3.83 1.222 8.19.36 11.28-2.63 4.48-4.334 4.597-11.476.265-15.953zm-65.142-5.44c-1.625-1.78-2.06-4.428-1.48-7.435.147-.466.254-.94.34-1.418.074-.26.137-.515.225-.777l-.12.115c.054-.446.08-.895.08-1.343v-.02c0-.082 0-.163-.003-.243-.02-1.25-.242-2.49-.67-3.67-.322-2.77.25-5.167 1.822-6.777 1.43-1.307 3.418-1.853 5.704-1.716 2.95 1.543 6.44 1.697 9.51.446 2.688-.272 5.008.31 6.58 1.84 1.516 1.662 2.01 4.073 1.597 6.833-.63 1.577-.89 3.27-.78 4.94l-.02-.02.026.086c.068.946.254 1.89.56 2.8.306 2.74-.26 5.11-1.814 6.706-1.78 1.624-4.427 2.06-7.434 1.48-.466-.148-.94-.255-1.42-.34-.26-.075-.514-.138-.776-.226l.114.12c-.406-.05-.816-.075-1.226-.08-.443-.013-.89-.002-1.332.036l.12-.115c-.265.08-.523.132-.785.2-.48.07-.956.16-1.426.293-3.023.48-5.655-.044-7.38-1.727zm20.98 46.474c-1.78 1.625-4.426 2.06-7.433 1.48-.466-.147-.94-.254-1.418-.34-.26-.074-.515-.137-.777-.225l.115.11c-1.715-.204-3.47-.016-5.117.567-2.775.325-5.178-.234-6.79-1.806-1.625-1.78-2.06-4.426-1.48-7.433.147-.464.254-.94.34-1.416.075-.26.138-.514.226-.776l-.12.114c.22-1.88-.03-3.805-.75-5.59-.23-2.61.36-4.86 1.86-6.4 1.66-1.516 4.07-2.01 6.83-1.597 2.593 1.036 5.496 1.074 8.116.105 2.754-.312 5.132.262 6.735 1.824 1.517 1.66 2.01 4.074 1.598 6.834-1.04 2.603-1.075 5.518-.095 8.144.23 2.61-.35 4.866-1.85 6.403zm23.475-22.74c-1.78 1.626-4.427 2.062-7.434 1.482-.466-.148-.94-.255-1.418-.34-.26-.075-.515-.138-.777-.226l.11.12c-1.7-.204-3.43-.022-5.066.546-2.838.363-5.298-.188-6.938-1.788-1.626-1.78-2.06-4.427-1.48-7.434.146-.466.253-.94.34-1.418.073-.26.136-.515.224-.777l-.12.11c.196-1.63.038-3.29-.477-4.867-.044-.135-.09-.27-.137-.4-.323-2.774.25-5.167 1.82-6.777 1.55-1.416 3.758-1.94 6.29-1.667 2.914 1.316 6.277 1.336 9.21.04 2.535-.188 4.72.41 6.22 1.873 1.516 1.66 2.01 4.07 1.597 6.83-1.012 2.54-1.07 5.378-.162 7.954.31 2.75-.25 5.13-1.81 6.73z"/><defs><path id="a" d="M220.152 55.873h-35.44c-2.774.91-4.162 2.536-4.162 4.88v1.29c.91 2.775 2.536 4.16 4.88 4.16h12.052V98.21c-.355 2.163-2.224 3.816-4.487 3.816-1.908 0-3.54-1.173-4.218-2.837h-.007c-2.504-6.37-7.452-18.56-14.847-36.578-1.363-4.495-3.23-6.744-5.596-6.744h-1.292c-1.075 0-2.32.72-3.73 2.153-5.836 14.804-9.614 24.61-11.336 29.415-1.31 3.214-2.41 5.966-3.3 8.26-.81 1.26-2.22 2.094-3.83 2.094-2.17 0-3.98-1.517-4.44-3.547v-.637c-1.055-2.772-2.73-4.16-5.02-4.16-1.557 0-2.945.62-4.16 1.866-2.75 5.262-6.53 7.892-11.338 7.892-2.942 0-5.62-1.1-8.035-3.3-2.58-1.96-3.873-5.644-3.873-11.048V80.55c0-3.18.286-5.427.86-6.743 2.51-5.07 6.194-7.606 11.05-7.606 3.753 0 7.005 1.724 9.756 5.168 1.29 2.965 3.11 4.448 5.453 4.448h1.148c2.776-1.004 4.164-2.726 4.164-5.166v-.144c0-.817-.288-1.82-.862-3.017-4.973-7.75-11.286-11.625-18.94-11.625h-1.434c-3.567 0-7.2 1.054-10.91 3.158-4.25 3-7.22 6.406-8.92 10.217-.823 1.177-2.185 1.948-3.73 1.948-2.132 0-3.917-1.468-4.414-3.446l-.097-.07c-.48-1.262-1.205-2.613-2.194-4.058-5.022-5.166-11-7.75-17.936-7.75H68.24c-2.68 0-5.692.575-9.04 1.723-7.844 3.42-11.765 8.01-11.765 13.774v1.29c0 5.12 2.773 9.14 8.322 12.056 2.557 1.147 6.72 2.2 12.482 3.156 8.8.933 13.2 2.655 13.2 5.166v.72c-1.007 3.035-4.59 4.804-10.76 5.31h-.58l-.575.14-.573-.143h-.43l-2.01-.144c-5.93-1.293-8.895-3.16-8.895-5.6-.957-2.58-2.63-3.872-5.022-3.872-1.223 0-2.24.325-3.05.975-1.056.846-1.76 2.242-2.11 4.19 0 .07.005.14.006.212.01.325.038.653.09.983-.124 1.474-1.357 2.633-2.863 2.633-1.054 0-1.974-.57-2.474-1.42l-.062.058c-2.692-6.78-7.362-18.264-14.01-34.46-1.362-4.495-3.23-6.744-5.595-6.744h-1.292c-1.076 0-2.32.718-3.73 2.153C11.67 72.83 7.89 82.63 6.17 87.44 2.055 97.556 0 103.104 0 104.085v1.29c.908 2.775 2.534 4.162 4.878 4.162h1.004c1.292 0 2.63-.91 4.018-2.726 3.252-8.8 5.022-13.29 5.31-13.48h14.204c2.01 5.333 3.252 8.394 3.73 9.183 1.22 4.688 3.23 7.03 6.027 7.03h1.3c.687-.225 1.29-.494 1.807-.81.66-.4 1.18-.87 1.564-1.414.526-.75.79-1.634.79-2.655v-.862c0-1.843 1.494-3.337 3.337-3.337.78 0 1.493.266 2.06.71.646.86 1.41 1.738 2.3 2.628 4.853 3.826 10.162 5.74 15.926 5.74h2.726c2.68 0 5.69-.575 9.04-1.723 7.843-3.42 11.766-8.01 11.766-13.773v-1.29c0-5.12-2.776-9.137-8.324-12.055-2.56-1.146-6.72-2.2-12.482-3.155-8.8-.93-13.2-2.655-13.2-5.166v-.717c1.005-3.04 4.592-4.81 10.762-5.31h.573l.575-.146.574.144h.43c6.146.55 9.733 2.27 10.76 5.164.837 2.87 2.51 4.305 5.02 4.305h.146c1.52 0 2.716-.49 3.59-1.457.788-.65 1.79-1.046 2.89-1.046 2.477 0 4.488 1.98 4.55 4.443h.006v10.25c0 3.565 1.053 7.2 3.157 10.906 5 7.08 11.12 10.618 18.367 10.618h1.435c4.903 0 9.543-1.817 13.92-5.452 1.446-1.455 2.624-2.77 3.537-3.944.83-.873 1.997-1.42 3.296-1.42 2.518 0 4.558 2.04 4.558 4.558 0 .062-.003.122-.006.183-.07.282-.106.49-.106.62v1.29c.91 2.775 2.536 4.162 4.88 4.162h1.004c1.29 0 2.63-.91 4.018-2.728 3.25-8.8 5.022-13.297 5.308-13.49h14.206c2.006 5.334 3.25 8.395 3.73 9.184 1.22 4.69 3.23 7.03 6.024 7.03h1.292c2.11-.69 3.416-1.8 3.92-3.323.79-1.357 2.253-2.27 3.936-2.27 1.498 0 2.822.724 3.65 1.84.932 2.5 2.51 3.754 4.735 3.754h.575c.67 0 1.198-.096 1.58-.288 2.296-.837 3.444-2.893 3.444-6.17v-36.87h12.77c2.772-.908 4.16-2.534 4.16-4.878v-1.29c-.91-2.775-2.535-4.163-4.88-4.163zM28.697 85.43H15.64l-.144-.142h-.144L21.81 68.5h.286l6.744 16.788-.143.143zm145.8 0h-13.06l-.143-.142h-.142l6.456-16.788h.288l6.744 16.788-.144.143z"/></defs><clipPath id="b"><use xlink:href="#a" overflow="visible"/></clipPath><radialGradient id="c" cx="95.174" cy="82.222" r="54.21" gradientUnits="userSpaceOnUse"><stop offset=".482" stop-color="#36A9E1"/><stop offset="1" stop-color="#002945"/></radialGradient><circle clip-path="url(#b)" fill="url(#c)" cx="95.174" cy="82.221" r="54.21"/></svg>