<?xml version="1.0" encoding="utf-8"?>
<!-- Generator: Adobe Illustrator 17.0.2, SVG Export Plug-In . SVG Version: 6.00 Build 0)  -->
<!DOCTYPE svg PUBLIC "-//W3C//DTD SVG 1.1//EN" "http://www.w3.org/Graphics/SVG/1.1/DTD/svg11.dtd">
<svg version="1.1" id="Layer_1" xmlns="http://www.w3.org/2000/svg" xmlns:xlink="http://www.w3.org/1999/xlink" x="0px" y="0px"
	 width="425px" height="202.64px" viewBox="0 0 425 202.64" enable-background="new 0 0 425 202.64" xml:space="preserve">
<path fill="#FFFFFF" d="M30,64H9.18C7.694,64,7,62.491,7,61.14V50.07C7,48.719,7.694,48,9.18,48h58.999
	C69.664,48,71,48.719,71,50.07v11.07c0,1.351-1.336,2.86-2.821,2.86H48v75.445c0,1.352-1.692,2.555-3.043,2.555H32.401
	c-1.351,0-2.401-1.203-2.401-2.555V64z"/>
<path fill="#FFFFFF" d="M67.368,138.495l41.988-90.936c0.405-0.81,1.08-1.559,2.295-1.559h1.351c1.35,0,1.89,0.752,2.295,1.562
	l41.583,90.895c0.81,1.755-0.271,3.543-2.296,3.543h-11.745c-2.025,0-2.971-0.67-3.915-2.561L132.308,125H91.939l-6.615,14.439
	c-0.54,1.351-1.755,2.561-3.915,2.561H69.663C67.639,142,66.559,140.25,67.368,138.495z M125.692,110l-13.501-30h-0.405l-13.23,30
	H125.692z"/>
<path fill="#FFFFFF" d="M169,50.07c0-1.351,1.245-2.07,2.73-2.07h38.612c16.201,0,29.433,12.713,29.433,28.78
	c0,12.421-8.236,22.422-19.982,27.148l18.497,34.225c0.944,1.756,0,3.848-2.296,3.848h-14.176c-1.215,0-1.89-0.679-2.16-1.218
	L201.702,105H187v34.445c0,1.352-1.499,2.555-2.85,2.555h-12.42c-1.485,0-2.73-1.203-2.73-2.555V50.07z M208.857,91
	c7.156,0,13.366-6.277,13.366-13.838c0-7.155-6.21-13.162-13.366-13.162H187v27H208.857z"/>
<path fill="#FFFFFF" d="M329.555,138.495l41.988-90.936c0.404-0.81,1.08-1.559,2.295-1.559h1.35c1.351,0,1.891,0.752,2.296,1.562
	l41.583,90.895c0.81,1.755-0.271,3.543-2.295,3.543h-11.746c-2.025,0-2.971-0.67-3.916-2.561L394.494,125h-40.367l-6.616,14.439
	c-0.54,1.351-1.755,2.561-3.915,2.561H331.85C329.824,142,328.744,140.25,329.555,138.495z M387.879,110l-13.501-30h-0.405
	l-13.23,30H387.879z"/>
<g>
	<path fill="#FFFFFF" d="M7.312,176.986c0-0.295,0.235-0.56,0.56-0.56h7.627c3.534,0,6.42,2.768,6.42,6.272
		c0,2.709-1.796,4.977-4.358,6.008l4.035,7.479c0.206,0.384,0,0.854-0.501,0.854h-1.502c-0.265,0-0.412-0.147-0.471-0.265
		l-3.917-7.805H9.579v7.51c0,0.295-0.265,0.56-0.56,0.56H7.871c-0.324,0-0.56-0.265-0.56-0.56V176.986z M15.352,187.028
		c2.268,0,4.24-1.885,4.24-4.3c0-2.238-1.973-4.152-4.24-4.152H9.638v8.452H15.352z"/>
	<path fill="#FFFFFF" d="M23.948,196.275l8.952-19.819c0.089-0.177,0.236-0.324,0.501-0.324h0.295c0.265,0,0.412,0.147,0.5,0.324
		l8.894,19.819c0.177,0.383-0.059,0.766-0.5,0.766h-1.178c-0.266,0-0.442-0.177-0.501-0.324l-2.18-4.859H28.277l-2.15,4.859
		c-0.059,0.147-0.235,0.324-0.5,0.324h-1.178C24.007,197.041,23.771,196.658,23.948,196.275z M37.937,190.032
		c-1.442-3.21-2.856-6.449-4.3-9.659h-0.235l-4.3,9.659H37.937z"/>
	<path fill="#FFFFFF" d="M46.299,176.662c0-0.295,0.265-0.53,0.56-0.53h0.736l13.281,16.551c0.029,0,0.029,0,0.06,0v-15.696
		c0-0.295,0.235-0.56,0.56-0.56h1.03c0.295,0,0.56,0.265,0.56,0.56v19.819c0,0.294-0.265,0.53-0.56,0.53h-0.53l-13.517-16.875h-0.03
		v16.021c0,0.295-0.235,0.56-0.56,0.56h-1.03c-0.295,0-0.56-0.265-0.56-0.56V176.662z"/>
	<path fill="#FFFFFF" d="M69.09,176.986c0-0.295,0.235-0.56,0.53-0.56h6.597c5.684,0,10.337,4.623,10.337,10.277
		c0,5.713-4.653,10.337-10.337,10.337H69.62c-0.295,0-0.53-0.265-0.53-0.56V176.986z M75.745,195.009
		c4.83,0,8.334-3.445,8.334-8.305c0-4.829-3.504-8.275-8.334-8.275h-4.417v16.58H75.745z"/>
	<path fill="#FFFFFF" d="M100.156,176.132c5.89,0,10.602,4.741,10.602,10.631c0,5.891-4.712,10.573-10.602,10.573
		s-10.572-4.683-10.572-10.573C89.584,180.873,94.267,176.132,100.156,176.132z M100.156,195.274c4.683,0,8.54-3.829,8.54-8.512
		c0-4.682-3.857-8.569-8.54-8.569s-8.511,3.888-8.511,8.569C91.646,191.445,95.474,195.274,100.156,195.274z"/>
	<path fill="#FFFFFF" d="M117.588,176.544c0.06-0.235,0.295-0.412,0.53-0.412h0.472c0.206,0,0.441,0.147,0.5,0.324l5.831,16.227
		c0.06,0,0.089,0,0.147,0l5.742-16.227c0.06-0.177,0.295-0.324,0.501-0.324h0.472c0.235,0,0.471,0.177,0.529,0.412l3.8,19.79
		c0.088,0.412-0.089,0.707-0.53,0.707h-1.178c-0.236,0-0.472-0.206-0.53-0.412l-2.621-15.167c-0.029,0-0.089,0-0.118,0l-5.419,15.55
		c-0.059,0.177-0.323,0.324-0.5,0.324h-0.53c-0.177,0-0.441-0.147-0.501-0.324l-5.478-15.55c-0.029,0-0.088,0-0.117,0l-2.562,15.167
		c-0.029,0.206-0.295,0.412-0.53,0.412h-1.178c-0.441,0-0.618-0.295-0.53-0.707L117.588,176.544z"/>
	<path fill="#FFFFFF" d="M140.645,176.986c0-0.295,0.265-0.56,0.56-0.56h1.178c0.295,0,0.56,0.265,0.56,0.56v19.495
		c0,0.295-0.265,0.56-0.56,0.56h-1.178c-0.295,0-0.56-0.265-0.56-0.56V176.986z"/>
	<path fill="#FFFFFF" d="M147.623,193.949c0.147-0.177,0.294-0.383,0.441-0.56c0.295-0.383,0.619-0.619,1.031-0.266
		c0.206,0.177,2.355,2.238,4.977,2.238c2.386,0,3.946-1.502,3.946-3.239c0-2.032-1.767-3.239-5.153-4.653
		c-3.239-1.413-5.184-2.738-5.184-6.096c0-2.003,1.591-5.242,6.273-5.242c2.886,0,5.035,1.502,5.035,1.502
		c0.177,0.089,0.53,0.441,0.177,1.001c-0.117,0.177-0.235,0.383-0.354,0.56c-0.265,0.413-0.56,0.53-1.03,0.266
		c-0.206-0.118-2.062-1.354-3.858-1.354c-3.121,0-4.063,2.002-4.063,3.239c0,1.973,1.502,3.121,3.976,4.152
		c3.976,1.619,6.538,3.121,6.538,6.537c0,3.063-2.916,5.302-6.361,5.302c-3.476,0-5.831-2.032-6.214-2.386
		C147.564,194.744,147.27,194.509,147.623,193.949z"/>
	<path fill="#FFFFFF" d="M164.643,176.986c0-0.295,0.235-0.56,0.56-0.56h11.603c0.324,0,0.56,0.265,0.56,0.56v0.854
		c0,0.295-0.235,0.56-0.56,0.56h-9.895v7.186h8.452c0.294,0,0.56,0.266,0.56,0.56v0.854c0,0.323-0.266,0.56-0.56,0.56h-8.452v7.51
		h9.895c0.324,0,0.56,0.265,0.56,0.559v0.854c0,0.295-0.235,0.56-0.56,0.56h-11.603c-0.324,0-0.56-0.265-0.56-0.56V176.986z"/>
	<path fill="#FFFFFF" d="M182.075,176.986c0-0.295,0.235-0.56,0.53-0.56h6.597c5.684,0,10.337,4.623,10.337,10.277
		c0,5.713-4.653,10.337-10.337,10.337h-6.597c-0.295,0-0.53-0.265-0.53-0.56V176.986z M188.73,195.009
		c4.83,0,8.334-3.445,8.334-8.305c0-4.829-3.504-8.275-8.334-8.275h-4.417v16.58H188.73z"/>
	<path fill="#FFFFFF" d="M219.737,176.132c2.975,0,5.125,1.031,7.127,2.739c0.235,0.235,0.266,0.589,0.029,0.824l-0.795,0.795
		c-0.235,0.295-0.471,0.266-0.766-0.029c-1.531-1.325-3.622-2.209-5.625-2.209c-4.652,0-8.216,3.917-8.216,8.481
		c0,4.535,3.563,8.452,8.216,8.452c2.562,0,4.064-1.03,5.625-2.209c0.295-0.235,0.53-0.206,0.707-0.088l0.884,0.795
		c0.235,0.177,0.176,0.589-0.03,0.795c-2.002,1.944-4.535,2.857-7.156,2.857c-5.89,0-10.631-4.683-10.631-10.573
		C209.106,180.873,213.848,176.132,219.737,176.132z"/>
	<path fill="#FFFFFF" d="M231.426,176.986c0-0.295,0.235-0.56,0.56-0.56h1.148c0.295,0,0.56,0.265,0.56,0.56v18.082h8.481
		c0.324,0,0.56,0.265,0.56,0.559v0.854c0,0.295-0.235,0.56-0.56,0.56h-10.189c-0.324,0-0.56-0.265-0.56-0.56V176.986z"/>
	<path fill="#FFFFFF" d="M245.885,176.986c0-0.295,0.265-0.56,0.56-0.56h1.178c0.295,0,0.56,0.265,0.56,0.56v19.495
		c0,0.295-0.265,0.56-0.56,0.56h-1.178c-0.295,0-0.56-0.265-0.56-0.56V176.986z"/>
	<path fill="#FFFFFF" d="M254.188,176.662c0-0.295,0.265-0.53,0.56-0.53h0.736l13.281,16.551c0.029,0,0.029,0,0.06,0v-15.696
		c0-0.295,0.235-0.56,0.56-0.56h1.03c0.295,0,0.56,0.265,0.56,0.56v19.819c0,0.294-0.265,0.53-0.56,0.53h-0.53l-13.518-16.875
		h-0.029v16.021c0,0.295-0.235,0.56-0.56,0.56h-1.03c-0.295,0-0.56-0.265-0.56-0.56V176.662z"/>
	<path fill="#FFFFFF" d="M276.979,176.986c0-0.295,0.265-0.56,0.56-0.56h1.178c0.295,0,0.56,0.265,0.56,0.56v19.495
		c0,0.295-0.265,0.56-0.56,0.56h-1.178c-0.295,0-0.56-0.265-0.56-0.56V176.986z"/>
	<path fill="#FFFFFF" d="M294.412,176.132c2.975,0,5.125,1.031,7.127,2.739c0.235,0.235,0.266,0.589,0.029,0.824l-0.795,0.795
		c-0.235,0.295-0.471,0.266-0.766-0.029c-1.531-1.325-3.622-2.209-5.625-2.209c-4.652,0-8.216,3.917-8.216,8.481
		c0,4.535,3.563,8.452,8.216,8.452c2.562,0,4.064-1.03,5.625-2.209c0.295-0.235,0.53-0.206,0.707-0.088l0.883,0.795
		c0.236,0.177,0.177,0.589-0.029,0.795c-2.002,1.944-4.535,2.857-7.156,2.857c-5.89,0-10.631-4.683-10.631-10.573
		C283.781,180.873,288.522,176.132,294.412,176.132z"/>
	<path fill="#FFFFFF" d="M303.274,196.275l8.952-19.819c0.089-0.177,0.236-0.324,0.501-0.324h0.295c0.265,0,0.412,0.147,0.5,0.324
		l8.894,19.819c0.177,0.383-0.059,0.766-0.5,0.766h-1.178c-0.266,0-0.442-0.177-0.501-0.324l-2.18-4.859h-10.454l-2.15,4.859
		c-0.059,0.147-0.235,0.324-0.5,0.324h-1.178C303.333,197.041,303.098,196.658,303.274,196.275z M317.263,190.032
		c-1.442-3.21-2.856-6.449-4.3-9.659h-0.235l-4.3,9.659H317.263z"/>
	<path fill="#FFFFFF" d="M325.624,176.986c0-0.295,0.235-0.56,0.56-0.56h1.148c0.295,0,0.56,0.265,0.56,0.56v18.082h8.481
		c0.324,0,0.56,0.265,0.56,0.559v0.854c0,0.295-0.235,0.56-0.56,0.56h-10.189c-0.324,0-0.56-0.265-0.56-0.56V176.986z"/>
	<path fill="#FFFFFF" d="M349.534,178.399h-5.124c-0.324,0-0.56-0.265-0.56-0.56v-0.854c0-0.295,0.235-0.56,0.56-0.56h12.486
		c0.324,0,0.56,0.265,0.56,0.56v0.854c0,0.295-0.235,0.56-0.56,0.56h-5.124v18.082c0,0.295-0.265,0.56-0.56,0.56h-1.119
		c-0.294,0-0.56-0.265-0.56-0.56V178.399z"/>
	<path fill="#FFFFFF" d="M360.694,176.986c0-0.295,0.235-0.56,0.56-0.56h7.627c3.534,0,6.42,2.768,6.42,6.272
		c0,2.709-1.796,4.977-4.358,6.008l4.035,7.479c0.206,0.384,0,0.854-0.501,0.854h-1.502c-0.265,0-0.412-0.147-0.471-0.265
		l-3.917-7.805h-5.625v7.51c0,0.295-0.265,0.56-0.56,0.56h-1.148c-0.324,0-0.56-0.265-0.56-0.56V176.986z M368.734,187.028
		c2.268,0,4.24-1.885,4.24-4.3c0-2.238-1.973-4.152-4.24-4.152h-5.714v8.452H368.734z"/>
	<path fill="#FFFFFF" d="M380.158,176.986c0-0.295,0.265-0.56,0.56-0.56h1.178c0.295,0,0.56,0.265,0.56,0.56v19.495
		c0,0.295-0.265,0.56-0.56,0.56h-1.178c-0.295,0-0.56-0.265-0.56-0.56V176.986z"/>
	<path fill="#FFFFFF" d="M385.635,196.275l8.952-19.819c0.089-0.177,0.236-0.324,0.501-0.324h0.295c0.265,0,0.412,0.147,0.5,0.324
		l8.895,19.819c0.176,0.383-0.06,0.766-0.501,0.766h-1.178c-0.266,0-0.442-0.177-0.501-0.324l-2.18-4.859h-10.454l-2.149,4.859
		c-0.06,0.147-0.236,0.324-0.501,0.324h-1.178C385.693,197.041,385.458,196.658,385.635,196.275z M399.623,190.032
		c-1.443-3.21-2.856-6.449-4.3-9.659h-0.235l-4.3,9.659H399.623z"/>
	<path fill="#FFFFFF" d="M407.985,176.986c0-0.295,0.235-0.56,0.56-0.56h1.148c0.295,0,0.56,0.265,0.56,0.56v18.082h8.481
		c0.324,0,0.56,0.265,0.56,0.559v0.854c0,0.295-0.235,0.56-0.56,0.56h-10.189c-0.324,0-0.56-0.265-0.56-0.56V176.986z"/>
</g>
<g>
	<path fill="#023550" d="M358.474,4h-20.021c-1.766,0-2.945,0.9-3.336,1.881L297.433,90h-1.374l-19.296-43h-27.525l43.091,93.848
		c0.589,1.176,1.57,2.152,3.338,2.152h1.962c1.766,0,2.749-0.977,3.336-2.152L361.81,8.929C362.987,6.377,361.417,4,358.474,4z"/>
	<g>
		<path fill="#023550" d="M258,65h26.774l-9.786-21.993c-0.387-0.97-1.551-2.007-3.295-2.007H251.92
			c-2.907,0-4.397,2.426-3.234,4.946L258,66.087V65z"/>
	</g>
</g>
<rect x="7.5" y="161" opacity="0.2" fill="#FFFFFF" stroke="#FFFFFF" stroke-width="1.5" stroke-miterlimit="10" width="413" height="0"/>
</svg>
