<svg xmlns="http://www.w3.org/2000/svg" width="428" height="209" viewBox="0 0 428 209"><path fill="#fff" d="M30 65H9.18C7.694 65 7 63.49 7 62.14V51.07C7 49.72 7.694 49 9.18 49h59c1.484 0 2.82.72 2.82 2.07v11.07c0 1.35-1.336 2.86-2.82 2.86H48v75.445c0 1.352-1.692 2.555-3.043 2.555H32.4c-1.35 0-2.4-1.203-2.4-2.555V65zm37.368 74.495l41.988-90.936c.405-.81 1.08-1.56 2.295-1.56h1.354c1.35 0 1.89.75 2.295 1.56l41.582 90.895c.81 1.755-.27 3.543-2.295 3.543H142.84c-2.026 0-2.972-.67-3.916-2.56L132.308 126h-40.37l-6.614 14.44c-.54 1.35-1.755 2.56-3.915 2.56H69.66c-2.024 0-3.104-1.75-2.295-3.505zM125.692 111l-13.5-30h-.406l-13.23 30h27.136zM169 51.07c0-1.35 1.245-2.07 2.73-2.07h38.612c16.2 0 29.433 12.713 29.433 28.78 0 12.42-8.236 22.422-19.982 27.148l18.497 34.225c.944 1.756 0 3.848-2.296 3.848h-14.176c-1.215 0-1.89-.676-2.16-1.215L201.702 106H187v34.445c0 1.352-1.5 2.555-2.85 2.555h-12.42c-1.485 0-2.73-1.203-2.73-2.555V51.07zM208.857 92c7.156 0 13.366-6.277 13.366-13.838 0-7.155-6.21-13.162-13.366-13.162H187v27h21.857zm120.698 47.495l41.988-90.936c.404-.81 1.08-1.56 2.295-1.56h1.35c1.35 0 1.89.75 2.296 1.56l41.583 90.895c.81 1.755-.27 3.543-2.295 3.543h-11.746c-2.025 0-2.97-.67-3.916-2.56L394.494 126h-40.367l-6.616 14.44c-.54 1.35-1.752 2.56-3.912 2.56H331.85c-2.026 0-3.106-1.75-2.295-3.505zM387.88 111l-13.502-30h-.405l-13.23 30h27.136zM7.06 179.974c0-.295.236-.56.56-.56h7.633c3.536 0 6.424 2.77 6.424 6.276 0 2.71-1.797 4.98-4.36 6.01l4.037 7.485c.206.384 0 .855-.5.855H19.35c-.265 0-.412-.148-.47-.265l-3.92-7.81H9.33v7.515c0 .295-.266.56-.56.56H7.62c-.324 0-.56-.265-.56-.56v-19.506zm8.045 10.048c2.27 0 4.243-1.886 4.243-4.302 0-2.24-1.974-4.155-4.243-4.155H9.388v8.457h5.717zm8.602 9.253l8.958-19.83c.09-.178.236-.325.5-.325h.296c.268 0 .415.148.5.324l8.9 19.83c.18.384-.06.767-.5.767h-1.176c-.266 0-.443-.174-.5-.32l-2.182-4.863H28.04l-2.152 4.862c-.06.147-.235.323-.5.323H24.21c-.444 0-.68-.382-.503-.765zm13.997-6.247c-1.443-3.212-2.858-6.453-4.302-9.665h-.235l-4.302 9.665h8.84zm8.368-13.378c0-.295.265-.53.56-.53h.737l13.286 16.56h.06v-15.706c0-.295.235-.56.56-.56h1.03c.296 0 .56.265.56.56v19.83c0 .295-.264.532-.56.532h-.53L48.253 183.45h-.03v16.03c0 .296-.235.56-.56.56h-1.03c-.296 0-.56-.264-.56-.56v-19.83zm22.804.324c0-.295.235-.56.53-.56h6.602c5.687 0 10.343 4.626 10.343 10.284 0 5.716-4.653 10.343-10.34 10.343h-6.6c-.296 0-.532-.262-.532-.56v-19.504zm6.66 18.033c4.833 0 8.34-3.447 8.34-8.31 0-4.832-3.507-8.28-8.34-8.28h-4.42v16.59h4.42zm24.426-18.887c5.893 0 10.608 4.743 10.608 10.636 0 5.894-4.715 10.58-10.608 10.58s-10.58-4.685-10.58-10.58c0-5.893 4.687-10.637 10.58-10.637zm0 19.153c4.685 0 8.545-3.83 8.545-8.517 0-4.684-3.86-8.575-8.545-8.575s-8.516 3.89-8.516 8.578 3.83 8.517 8.516 8.517zm17.442-18.743c.06-.235.295-.41.53-.41h.473c.206 0 .442.147.5.323l5.835 16.236h.148l5.746-16.24c.06-.176.295-.323.5-.323h.473c.232 0 .47.176.53.41l3.8 19.803c.09.413-.09.708-.53.708h-1.18c-.236 0-.47-.206-.53-.412l-2.624-15.176h-.118l-5.423 15.56c-.06.176-.323.323-.5.323h-.53c-.178 0-.443-.148-.502-.324l-5.48-15.56h-.118l-2.564 15.176c-.03.206-.294.412-.53.412h-1.18c-.44 0-.617-.296-.53-.708l3.8-19.802zm23.07.444c0-.295.266-.56.56-.56h1.18c.294 0 .56.265.56.56v19.507c0 .298-.266.56-.56.56h-1.18c-.294 0-.56-.262-.56-.56v-19.504zm6.984 16.973c.148-.177.294-.383.442-.56.295-.383.62-.62 1.032-.266.206.18 2.357 2.24 4.98 2.24 2.387 0 3.95-1.5 3.95-3.24 0-2.03-1.77-3.24-5.157-4.654-3.24-1.414-5.187-2.74-5.187-6.1 0-2.003 1.592-5.244 6.277-5.244 2.887 0 5.038 1.504 5.038 1.504.177.09.53.442.177 1.002-.117.177-.235.383-.354.56-.265.413-.56.53-1.03.266-.207-.117-2.064-1.354-3.862-1.354-3.123 0-4.066 2.003-4.066 3.24 0 1.975 1.503 3.124 3.978 4.156 3.978 1.62 6.542 3.123 6.542 6.54 0 3.066-2.918 5.306-6.365 5.306-3.478 0-5.835-2.033-6.218-2.387-.236-.207-.53-.443-.177-1.003zm17.03-16.973c0-.295.234-.56.56-.56h11.61c.323 0 .56.265.56.56v.854c0 .295-.237.56-.56.56h-9.9v7.19h8.455c.294 0 .56.266.56.56v.855c0 .323-.266.56-.56.56h-8.457v7.514h9.9c.325 0 .56.265.56.56v.854c0 .298-.235.56-.56.56h-11.61c-.323 0-.56-.262-.56-.56v-19.504zm17.442 0c0-.295.236-.56.532-.56h6.6c5.688 0 10.344 4.626 10.344 10.284 0 5.716-4.656 10.343-10.343 10.343h-6.6c-.296 0-.532-.262-.532-.56v-19.504zm6.66 18.033c4.833 0 8.34-3.447 8.34-8.31 0-4.832-3.507-8.28-8.34-8.28h-4.42v16.59h4.42zm31.026-18.887c2.976 0 5.128 1.03 7.13 2.74.237.235.267.59.03.825l-.795.795c-.233.295-.47.266-.763-.03-1.532-1.325-3.624-2.21-5.628-2.21-4.656 0-8.22 3.92-8.22 8.488 0 4.538 3.564 8.457 8.22 8.457 2.563 0 4.066-1.03 5.627-2.21.295-.235.53-.206.707-.088l.884.795c.235.177.176.59-.03.795-2.003 1.946-4.538 2.86-7.16 2.86-5.894 0-10.638-4.686-10.638-10.58s4.743-10.638 10.637-10.638zm11.694.854c0-.295.236-.56.56-.56h1.15c.295 0 .56.265.56.56v18.093h8.487c.324 0 .56.265.56.56v.854c0 .298-.235.56-.56.56H231.87c-.323 0-.56-.262-.56-.56v-19.504zm14.47 0c0-.295.264-.56.56-.56h1.177c.295 0 .56.265.56.56v19.507c0 .298-.265.56-.56.56h-1.178c-.298 0-.56-.262-.56-.56v-19.504zm8.308-.324c0-.295.265-.53.56-.53h.737l13.29 16.56h.06v-15.706c0-.295.235-.56.56-.56h1.03c.295 0 .56.265.56.56v19.83c0 .295-.265.532-.56.532h-.53l-13.527-16.885h-.03v16.03c0 .298-.235.56-.56.56h-1.03c-.295 0-.56-.262-.56-.56v-19.83zm22.805.324c0-.295.265-.56.56-.56h1.178c.298 0 .56.265.56.56v19.507c0 .298-.262.56-.56.56h-1.175c-.295 0-.56-.262-.56-.56v-19.504zm17.443-.854c2.976 0 5.128 1.03 7.13 2.74.237.235.267.59.03.825l-.795.795c-.233.295-.47.266-.763-.03-1.532-1.325-3.624-2.21-5.628-2.21-4.656 0-8.22 3.92-8.22 8.488 0 4.538 3.564 8.457 8.22 8.457 2.563 0 4.066-1.03 5.627-2.21.295-.235.53-.206.707-.088l.883.795c.236.177.177.59-.03.795-2.002 1.946-4.537 2.86-7.16 2.86-5.893 0-10.637-4.686-10.637-10.58s4.744-10.638 10.637-10.638zm8.868 20.155l8.958-19.83c.09-.178.236-.325.5-.325h.296c.265 0 .412.148.5.324l8.9 19.83c.176.384-.06.767-.5.767h-1.18c-.265 0-.442-.174-.5-.32l-2.18-4.863h-10.46l-2.153 4.862c-.06.147-.235.323-.5.323h-1.178c-.445 0-.68-.382-.503-.765zm13.997-6.247c-1.44-3.212-2.855-6.453-4.3-9.665h-.235l-4.302 9.665h8.84zm8.368-13.054c0-.295.236-.56.56-.56h1.15c.294 0 .56.265.56.56v18.093h8.486c.324 0 .56.265.56.56v.854c0 .298-.236.56-.56.56h-10.196c-.324 0-.56-.262-.56-.56v-19.504zm23.925 1.414h-5.127c-.324 0-.56-.265-.56-.56v-.854c0-.295.235-.56.56-.56h12.494c.322 0 .56.265.56.56v.854c0 .295-.237.56-.56.56h-5.13v18.093c0 .298-.264.56-.56.56h-1.12c-.293 0-.56-.262-.56-.56v-18.09zm11.168-1.414c0-.295.236-.56.56-.56h7.63c3.538 0 6.426 2.77 6.426 6.276 0 2.71-1.797 4.98-4.36 6.01l4.037 7.485c.206.384 0 .855-.5.855h-1.504c-.266 0-.413-.148-.47-.265l-3.92-7.81h-5.63v7.515c0 .295-.264.56-.56.56h-1.15c-.322 0-.56-.265-.56-.56v-19.506zm8.045 10.048c2.27 0 4.243-1.886 4.243-4.302 0-2.24-1.974-4.155-4.243-4.155h-5.717v8.457h5.717zm11.43-10.048c0-.295.265-.56.56-.56h1.178c.295 0 .56.265.56.56v19.507c0 .298-.265.56-.56.56h-1.178c-.295 0-.56-.262-.56-.56v-19.504zm5.48 19.3l8.958-19.83c.09-.177.236-.324.5-.324h.296c.264 0 .41.148.5.324l8.9 19.83c.175.384-.06.767-.5.767h-1.18c-.266 0-.443-.174-.5-.32l-2.18-4.863h-10.46l-2.153 4.862c-.06.147-.236.323-.5.323h-1.18c-.443 0-.68-.382-.502-.765zm13.997-6.246c-1.442-3.212-2.856-6.453-4.3-9.665h-.235l-4.302 9.665h8.84zm8.368-13.054c0-.295.236-.56.56-.56h1.15c.294 0 .56.265.56.56v18.093h8.486c.324 0 .56.265.56.56v.854c0 .298-.236.56-.56.56H408.54c-.324 0-.56-.262-.56-.56v-19.504z"/><path fill="#023550" d="M358.474 5h-20.02c-1.767 0-2.946.9-3.337 1.88L297.433 91h-1.374l-19.3-43h-27.525l43.09 93.848c.59 1.176 1.57 2.152 3.34 2.152h1.96c1.767 0 2.75-.977 3.337-2.152L361.81 9.928C362.987 7.38 361.417 5 358.474 5zM258 66h26.774l-9.786-21.993c-.387-.97-1.55-2.007-3.295-2.007H251.92c-2.907 0-4.397 2.426-3.234 4.946L258 67.086V66z"/><path fill="#fff" stroke="#fff" stroke-width="2" stroke-miterlimit="10" d="M7.812 162h410.375v2H7.812z"/></svg>