<svg xmlns="http://www.w3.org/2000/svg" xmlns:xlink="http://www.w3.org/1999/xlink" width="328.028" height="160.831" viewBox="0 0 328.028 160.831"><path fill="#fff" d="M220.152 55.873h-35.44c-2.774.91-4.162 2.536-4.162 4.88v1.29c.91 2.775 2.536 4.16 4.88 4.16h12.052V98.21c-.355 2.163-2.224 3.816-4.487 3.816-1.908 0-3.54-1.173-4.218-2.837h-.007c-2.504-6.368-7.452-18.554-14.847-36.573-1.363-4.495-3.23-6.744-5.596-6.744h-1.292c-1.075 0-2.32.718-3.73 2.153-5.836 14.803-9.614 24.608-11.336 29.414-1.31 3.215-2.41 5.967-3.3 8.26-.81 1.26-2.22 2.095-3.83 2.095-2.17 0-3.976-1.517-4.436-3.547v-.637c-1.054-2.772-2.728-4.16-5.022-4.16-1.555 0-2.943.62-4.162 1.866-2.75 5.262-6.527 7.892-11.334 7.892-2.942 0-5.62-1.1-8.035-3.3-2.58-1.96-3.872-5.644-3.872-11.048v-4.306c0-3.18.286-5.428.86-6.744 2.51-5.07 6.194-7.606 11.05-7.606 3.753 0 7.005 1.722 9.756 5.166 1.29 2.965 3.108 4.448 5.452 4.448h1.148c2.774-1.004 4.162-2.726 4.162-5.166v-.143c0-.816-.288-1.82-.862-3.016-4.974-7.748-11.287-11.623-18.94-11.623h-1.435c-3.565 0-7.2 1.054-10.907 3.158-4.25 3-7.222 6.406-8.92 10.217-.824 1.176-2.186 1.947-3.73 1.947-2.133 0-3.918-1.466-4.415-3.444l-.097-.07c-.48-1.262-1.204-2.613-2.193-4.058-5.023-5.166-11.002-7.75-17.937-7.75h-2.727c-2.68 0-5.692.575-9.04 1.723-7.844 3.42-11.765 8.012-11.765 13.775v1.29c0 5.12 2.773 9.137 8.322 12.054 2.558 1.148 6.72 2.2 12.483 3.157 8.8.933 13.2 2.655 13.2 5.166v.718c-1.004 3.037-4.59 4.806-10.76 5.31h-.577l-.574.142-.574-.143h-.43l-2.01-.144c-5.93-1.293-8.895-3.16-8.895-5.598-.957-2.583-2.63-3.874-5.022-3.874-1.224 0-2.24.324-3.052.974-1.055.846-1.76 2.242-2.11 4.19 0 .07.006.14.007.212.01.325.037.653.088.983-.123 1.473-1.356 2.632-2.862 2.632-1.054 0-1.974-.57-2.474-1.42l-.062.057c-2.693-6.78-7.363-18.264-14.01-34.46-1.363-4.495-3.23-6.744-5.596-6.744h-1.292c-1.076 0-2.32.718-3.73 2.153C11.67 72.83 7.89 82.633 6.17 87.44 2.055 97.556 0 103.104 0 104.085v1.29c.908 2.775 2.534 4.162 4.878 4.162h1.004c1.292 0 2.63-.91 4.018-2.726 3.252-8.8 5.022-13.293 5.31-13.485h14.204c2.01 5.333 3.252 8.394 3.73 9.183 1.22 4.688 3.23 7.03 6.027 7.03h1.294c.688-.225 1.29-.494 1.808-.808.66-.4 1.18-.873 1.564-1.416.526-.75.79-1.633.79-2.654v-.864c0-1.843 1.494-3.337 3.337-3.337.78 0 1.493.265 2.06.71.646.86 1.41 1.737 2.3 2.627 4.853 3.825 10.162 5.738 15.926 5.738h2.725c2.68 0 5.692-.574 9.04-1.722 7.844-3.42 11.767-8.01 11.767-13.774v-1.29c0-5.118-2.776-9.136-8.324-12.054-2.56-1.147-6.72-2.2-12.483-3.156-8.8-.93-13.2-2.653-13.2-5.164v-.717c1.005-3.04 4.592-4.81 10.762-5.31h.574l.574-.145.574.144h.43c6.146.55 9.733 2.27 10.762 5.163.835 2.87 2.51 4.305 5.02 4.305h.144c1.52 0 2.716-.49 3.59-1.456.788-.648 1.79-1.044 2.89-1.044 2.477 0 4.488 1.98 4.55 4.443h.006v10.253c0 3.564 1.052 7.2 3.156 10.905 4.998 7.08 11.12 10.618 18.366 10.618h1.435c4.902 0 9.542-1.817 13.918-5.452 1.447-1.455 2.625-2.77 3.538-3.944.83-.873 1.998-1.42 3.297-1.42 2.517 0 4.557 2.04 4.557 4.558 0 .062-.004.122-.007.183-.07.287-.107.496-.107.625v1.29c.91 2.775 2.536 4.162 4.88 4.162h1.004c1.29 0 2.63-.91 4.018-2.728 3.25-8.8 5.022-13.297 5.308-13.49h14.206c2.006 5.334 3.25 8.395 3.73 9.184 1.22 4.688 3.23 7.03 6.024 7.03h1.292c2.11-.69 3.416-1.8 3.92-3.323.79-1.356 2.253-2.27 3.936-2.27 1.498 0 2.822.725 3.65 1.84.932 2.5 2.51 3.755 4.735 3.755h.574c.67 0 1.197-.096 1.58-.288 2.295-.837 3.443-2.893 3.443-6.17V66.204h12.77c2.773-.908 4.16-2.534 4.16-4.878v-1.29c-.908-2.775-2.534-4.163-4.878-4.163zM28.697 85.43H15.64l-.144-.142h-.144L21.81 68.5h.286l6.744 16.788-.143.143zm145.8 0h-13.06l-.143-.142h-.142l6.456-16.788h.288l6.744 16.788-.144.143zm150.358-12c-1.242-1.282-2.715-2.205-4.29-2.77-1.58-.59-3.265-.814-4.928-.67l.12-.115c-.267.08-.524.134-.786.2-.48.07-.955.162-1.425.295-3.025.48-5.656-.042-7.382-1.725-1.624-1.78-2.06-4.427-1.48-7.434.148-.463.255-.94.34-1.415.075-.26.138-.515.226-.777l-.12.115c.39-3.253-.634-6.648-3.09-9.187-3.253-3.362-8.09-4.265-12.193-2.673-2.667.262-4.972-.31-6.535-1.834-1.625-1.78-2.06-4.428-1.48-7.435.147-.466.254-.94.34-1.418.075-.26.138-.515.226-.777l-.12.114c.334-2.788-.37-5.68-2.123-8.046-.334-.473-.707-.927-1.123-1.357-3.36-3.47-8.408-4.32-12.593-2.506-2.46.15-4.58-.443-6.048-1.872-1.625-1.78-2.06-4.426-1.48-7.433.147-.467.254-.94.34-1.42.074-.26.137-.515.225-.777l-.12.116c.39-3.255-.633-6.65-3.09-9.19-4.33-4.476-11.473-4.594-15.95-.262-4.477 4.332-4.595 11.474-.263 15.95 3.188 3.296 7.895 4.22 11.945 2.757 2.77-.322 5.164.25 6.774 1.822 1.47 1.61 1.977 3.928 1.63 6.583-.244.63-.43 1.28-.555 1.935-.225.986-.317 1.996-.273 3l-.005-.004.005.02c.048 1.083.253 2.16.612 3.196.224 2.6-.355 4.847-1.85 6.378-1.78 1.625-4.43 2.06-7.435 1.48-.466-.147-.94-.254-1.418-.34-.26-.074-.515-.137-.777-.225l.114.12c-3.254-.39-6.65.632-9.188 3.09-2.24 2.166-3.39 5.04-3.435 7.93-.07 2.91.985 5.85 3.17 8.11 3.19 3.293 7.896 4.217 11.946 2.754 2.772-.322 5.165.25 6.775 1.822 1.518 1.66 2.01 4.072 1.6 6.832-1.047 2.623-1.076 5.562-.073 8.203.265 2.67-.308 4.98-1.833 6.544-1.78 1.624-4.425 2.06-7.432 1.48l-.036-.01c-.13-.04-.26-.078-.393-.113l-.047-.01c-.312-.08-.626-.15-.942-.207-.26-.074-.514-.137-.776-.226l.115.12c-3.255-.39-6.65.633-9.19 3.09-4.476 4.33-4.594 11.473-.26 15.95 1.404 1.452 3.106 2.443 4.916 2.975.09.03.18.055.272.08.02.006.04.01.062.018 2.232.603 4.614.512 6.805-.28 2.77-.322 5.164.25 6.774 1.822 1.516 1.66 2.01 4.07 1.597 6.83-1.03 2.583-1.073 5.472-.117 8.082.275 2.69-.294 5.016-1.828 6.588-1.78 1.625-4.427 2.06-7.434 1.48-.465-.147-.94-.254-1.417-.34-.26-.075-.515-.138-.777-.226l.115.12c-3.253-.39-6.65.633-9.187 3.09-4.477 4.33-4.595 11.473-.262 15.95 4.333 4.477 11.475 4.595 15.95.263 3.297-3.19 4.22-7.896 2.758-11.946-.322-2.772.25-5.165 1.822-6.775 1.63-1.49 3.99-1.99 6.69-1.617.784.313 1.597.534 2.423.66 3.42.588 7.063-.404 9.748-3.002 3.285-3.176 4.22-7.862 2.78-11.902l-.075-.22c-.32-2.77.252-5.164 1.823-6.774 1.548-1.412 3.75-1.937 6.276-1.667 3.018 1.336 6.507 1.285 9.496-.168l.046-.023.136-.067c1.042-.507 2.025-1.184 2.904-2.035.727-.703 1.338-1.482 1.835-2.31 1.78-2.935 2.105-6.516.958-9.692-.322-2.772.25-5.165 1.822-6.775 1.652-1.51 4.05-2.005 6.793-1.602.26.1.522.193.787.274 3.83 1.223 8.188.36 11.28-2.63 4.48-4.333 4.597-11.475.265-15.952zm-65.142-5.44c-1.625-1.78-2.06-4.428-1.48-7.435.147-.466.254-.94.34-1.418.074-.26.137-.515.225-.777l-.12.115c.054-.446.08-.895.08-1.343v-.02c0-.082 0-.163-.003-.243-.02-1.244-.242-2.484-.67-3.667-.322-2.772.25-5.165 1.822-6.775 1.43-1.307 3.418-1.853 5.704-1.716 2.95 1.543 6.44 1.697 9.505.446 2.688-.272 5.008.31 6.58 1.84 1.516 1.662 2.01 4.073 1.597 6.833-.63 1.578-.89 3.27-.78 4.94l-.02-.02.026.087c.068.946.254 1.89.56 2.8.306 2.74-.258 5.11-1.814 6.706-1.78 1.625-4.426 2.06-7.433 1.48-.466-.147-.94-.254-1.42-.34-.26-.074-.514-.137-.776-.225l.115.12c-.408-.05-.818-.075-1.228-.08-.443-.013-.89-.002-1.332.036l.12-.115c-.266.08-.524.134-.786.2-.48.07-.957.162-1.427.295-3.023.478-5.655-.045-7.38-1.728zm20.98 46.474c-1.78 1.625-4.426 2.06-7.433 1.48-.466-.147-.94-.254-1.418-.34-.26-.074-.515-.137-.777-.225l.115.116c-1.715-.205-3.47-.017-5.117.566-2.775.325-5.178-.234-6.79-1.806-1.625-1.78-2.06-4.427-1.48-7.434.147-.466.254-.94.34-1.418.075-.26.138-.515.226-.777l-.12.114c.222-1.88-.025-3.806-.747-5.59-.23-2.61.36-4.863 1.858-6.4 1.66-1.517 4.073-2.01 6.833-1.598 2.594 1.035 5.497 1.073 8.117.104 2.755-.312 5.133.262 6.736 1.824 1.516 1.66 2.01 4.073 1.597 6.833-1.04 2.603-1.074 5.518-.094 8.144.23 2.61-.35 4.867-1.848 6.404zm23.475-22.74c-1.78 1.626-4.427 2.062-7.434 1.482-.466-.148-.94-.255-1.418-.34-.26-.075-.515-.138-.777-.226l.112.12c-1.696-.204-3.43-.022-5.063.546-2.838.363-5.298-.188-6.938-1.788-1.625-1.78-2.06-4.427-1.48-7.434.147-.466.254-.94.34-1.418.074-.26.137-.515.225-.777l-.12.112c.195-1.628.037-3.29-.478-4.864-.044-.135-.09-.27-.137-.4-.322-2.774.25-5.167 1.822-6.777 1.55-1.415 3.757-1.94 6.29-1.666 2.913 1.316 6.276 1.336 9.208.04 2.536-.188 4.72.408 6.22 1.873 1.517 1.66 2.012 4.07 1.598 6.83-1.012 2.54-1.07 5.378-.162 7.954.31 2.75-.253 5.13-1.813 6.73z"/><defs><path id="a" d="M220.152 55.873h-35.44c-2.774.91-4.162 2.536-4.162 4.88v1.29c.91 2.775 2.536 4.16 4.88 4.16h12.052V98.21c-.355 2.163-2.224 3.816-4.487 3.816-1.908 0-3.54-1.173-4.218-2.837h-.007c-2.504-6.368-7.452-18.554-14.847-36.573-1.363-4.495-3.23-6.744-5.596-6.744h-1.292c-1.075 0-2.32.718-3.73 2.153-5.836 14.803-9.614 24.608-11.336 29.414-1.31 3.215-2.41 5.967-3.3 8.26-.81 1.26-2.22 2.095-3.83 2.095-2.17 0-3.976-1.517-4.436-3.547v-.637c-1.054-2.772-2.728-4.16-5.022-4.16-1.555 0-2.943.62-4.162 1.866-2.75 5.262-6.527 7.892-11.334 7.892-2.942 0-5.62-1.1-8.035-3.3-2.58-1.96-3.872-5.644-3.872-11.048v-4.306c0-3.18.286-5.428.86-6.744 2.51-5.07 6.194-7.606 11.05-7.606 3.753 0 7.005 1.722 9.756 5.166 1.29 2.965 3.108 4.448 5.452 4.448h1.148c2.774-1.004 4.162-2.726 4.162-5.166v-.143c0-.816-.288-1.82-.862-3.016-4.974-7.748-11.287-11.623-18.94-11.623h-1.435c-3.565 0-7.2 1.054-10.907 3.158-4.25 3-7.222 6.406-8.92 10.217-.824 1.176-2.186 1.947-3.73 1.947-2.133 0-3.918-1.466-4.415-3.444l-.097-.07c-.48-1.262-1.204-2.613-2.193-4.058-5.023-5.166-11.002-7.75-17.937-7.75h-2.727c-2.68 0-5.692.575-9.04 1.723-7.844 3.42-11.765 8.012-11.765 13.775v1.29c0 5.12 2.773 9.137 8.322 12.054 2.558 1.148 6.72 2.2 12.483 3.157 8.8.933 13.2 2.655 13.2 5.166v.718c-1.004 3.037-4.59 4.806-10.76 5.31h-.577l-.574.142-.574-.143h-.43l-2.01-.144c-5.93-1.293-8.895-3.16-8.895-5.598-.957-2.583-2.63-3.874-5.022-3.874-1.224 0-2.24.324-3.052.974-1.055.846-1.76 2.242-2.11 4.19 0 .07.006.14.007.212.01.325.037.653.088.983-.123 1.473-1.356 2.632-2.862 2.632-1.054 0-1.974-.57-2.474-1.42l-.062.057c-2.693-6.78-7.363-18.264-14.01-34.46-1.363-4.495-3.23-6.744-5.596-6.744h-1.292c-1.076 0-2.32.718-3.73 2.153C11.67 72.83 7.89 82.633 6.17 87.44 2.055 97.556 0 103.104 0 104.085v1.29c.908 2.775 2.534 4.162 4.878 4.162h1.004c1.292 0 2.63-.91 4.018-2.726 3.252-8.8 5.022-13.293 5.31-13.485h14.204c2.01 5.333 3.252 8.394 3.73 9.183 1.22 4.688 3.23 7.03 6.027 7.03h1.294c.688-.225 1.29-.494 1.808-.808.66-.4 1.18-.873 1.564-1.416.526-.75.79-1.633.79-2.654v-.864c0-1.843 1.494-3.337 3.337-3.337.78 0 1.493.265 2.06.71.646.86 1.41 1.737 2.3 2.627 4.853 3.825 10.162 5.738 15.926 5.738h2.725c2.68 0 5.692-.574 9.04-1.722 7.844-3.42 11.767-8.01 11.767-13.774v-1.29c0-5.118-2.776-9.136-8.324-12.054-2.56-1.147-6.72-2.2-12.483-3.156-8.8-.93-13.2-2.653-13.2-5.164v-.717c1.005-3.04 4.592-4.81 10.762-5.31h.574l.574-.145.574.144h.43c6.146.55 9.733 2.27 10.762 5.163.835 2.87 2.51 4.305 5.02 4.305h.144c1.52 0 2.716-.49 3.59-1.456.788-.648 1.79-1.044 2.89-1.044 2.477 0 4.488 1.98 4.55 4.443h.006v10.253c0 3.564 1.052 7.2 3.156 10.905 4.998 7.08 11.12 10.618 18.366 10.618h1.435c4.902 0 9.542-1.817 13.918-5.452 1.447-1.455 2.625-2.77 3.538-3.944.83-.873 1.998-1.42 3.297-1.42 2.517 0 4.557 2.04 4.557 4.558 0 .062-.004.122-.007.183-.07.287-.107.496-.107.625v1.29c.91 2.775 2.536 4.162 4.88 4.162h1.004c1.29 0 2.63-.91 4.018-2.728 3.25-8.8 5.022-13.297 5.308-13.49h14.206c2.006 5.334 3.25 8.395 3.73 9.184 1.22 4.688 3.23 7.03 6.024 7.03h1.292c2.11-.69 3.416-1.8 3.92-3.323.79-1.356 2.253-2.27 3.936-2.27 1.498 0 2.822.725 3.65 1.84.932 2.5 2.51 3.755 4.735 3.755h.574c.67 0 1.197-.096 1.58-.288 2.295-.837 3.443-2.893 3.443-6.17V66.204h12.77c2.773-.908 4.16-2.534 4.16-4.878v-1.29c-.908-2.775-2.534-4.163-4.878-4.163zM28.697 85.43H15.64l-.144-.142h-.144L21.81 68.5h.286l6.744 16.788-.143.143zm145.8 0h-13.06l-.143-.142h-.142l6.456-16.788h.288l6.744 16.788-.144.143z"/></defs><use xlink:href="#a" overflow="visible" fill="#fff"/><clipPath id="b"><use xlink:href="#a" overflow="visible"/></clipPath><circle clip-path="url(#b)" fill="#fff" cx="95.174" cy="82.221" r="54.21"/></svg>