<?xml version="1.0" encoding="utf-8"?>
<!-- Generator: Adobe Illustrator 17.0.2, SVG Export Plug-In . SVG Version: 6.00 Build 0)  -->
<!DOCTYPE svg PUBLIC "-//W3C//DTD SVG 1.1//EN" "http://www.w3.org/Graphics/SVG/1.1/DTD/svg11.dtd">
<svg version="1.1" id="Layer_1" xmlns="http://www.w3.org/2000/svg" xmlns:xlink="http://www.w3.org/1999/xlink" x="0px" y="0px"
	 width="890.118px" height="518.74px" viewBox="0 0 890.118 518.74" enable-background="new 0 0 890.118 518.74"
	 xml:space="preserve">
<g>
	<g opacity="0.05">
		<rect x="55.745" y="240.74" fill="#FFFFFF" width="339" height="145"/>
		<polygon fill="#FFFFFF" points="310.28,174.446 395.125,240.74 225.436,240.74 55.745,240.74 140.591,174.446 225.436,108.152 		
			"/>
		<polygon fill="#FFFFFF" points="140.335,452.24 55.404,385.74 225.265,385.74 395.125,385.74 310.195,452.24 225.265,518.74 		"/>
	</g>
	<g opacity="0.05">
		<rect x="0.112" y="66.498" fill="#FFFFFF" width="111.253" height="47.586"/>
		<polygon fill="#FFFFFF" points="83.523,44.744 111.365,66.498 55.682,66.498 0,66.498 27.841,44.744 55.682,22.991 		"/>
		<polygon fill="#FFFFFF" points="27.841,135.884 0,114.084 55.682,114.084 111.365,114.084 83.523,135.884 55.682,157.683 		"/>
	</g>
	<g opacity="0.05">
		<rect x="240.071" y="28.906" fill="#FFFFFF" width="73.917" height="31.616"/>
		<polygon fill="#FFFFFF" points="295.489,14.452 313.988,28.906 276.992,28.906 239.996,28.906 258.494,14.452 276.992,0 		"/>
		<polygon fill="#FFFFFF" points="258.494,75.006 239.996,60.522 276.992,60.522 313.988,60.522 295.489,75.006 276.992,89.489 		
			"/>
	</g>
	<g opacity="0.05">
		<rect x="362.197" y="97.129" fill="#FFFFFF" width="51.44" height="22.003"/>
		<polygon fill="#FFFFFF" points="400.764,87.071 413.637,97.129 387.891,97.129 362.145,97.129 375.018,87.071 387.891,77.013 		
			"/>
		<polygon fill="#FFFFFF" points="375.018,129.212 362.145,119.132 387.891,119.132 413.637,119.132 400.764,129.212 
			387.891,139.291 		"/>
	</g>
</g>
<g>
	<g opacity="0.05">
		<rect x="463.533" y="133" fill="#FFFFFF" width="339" height="145"/>
		<polygon fill="#FFFFFF" points="547.998,344.294 463.153,278 632.842,278 802.533,278 717.687,344.294 632.842,410.588 		"/>
		<polygon fill="#FFFFFF" points="717.943,66.5 802.874,133 633.013,133 463.153,133 548.083,66.5 633.013,0 		"/>
	</g>
	<g opacity="0.05">
		<rect x="746.913" y="404.656" fill="#FFFFFF" width="111.253" height="47.586"/>
		<polygon fill="#FFFFFF" points="774.755,473.996 746.913,452.242 802.596,452.242 858.278,452.242 830.437,473.996 
			802.596,495.749 		"/>
		<polygon fill="#FFFFFF" points="830.437,382.856 858.278,404.656 802.596,404.656 746.913,404.656 774.755,382.856 
			802.596,361.057 		"/>
	</g>
	<g opacity="0.05">
		<rect x="544.29" y="458.218" fill="#FFFFFF" width="73.917" height="31.616"/>
		<polygon fill="#FFFFFF" points="562.788,504.287 544.29,489.834 581.286,489.834 618.281,489.834 599.784,504.287 581.286,518.74 
					"/>
		<polygon fill="#FFFFFF" points="599.784,443.734 618.281,458.218 581.286,458.218 544.29,458.218 562.788,443.734 581.286,429.25 
					"/>
	</g>
	<g opacity="0.05">
		<rect x="444.641" y="399.608" fill="#FFFFFF" width="51.44" height="22.003"/>
		<polygon fill="#FFFFFF" points="457.514,431.669 444.641,421.61 470.387,421.61 496.133,421.61 483.26,431.669 470.387,441.727 		
			"/>
		<polygon fill="#FFFFFF" points="483.26,389.528 496.133,399.608 470.387,399.608 444.641,399.608 457.514,389.528 
			470.387,379.449 		"/>
	</g>
</g>
</svg>
