<svg xmlns="http://www.w3.org/2000/svg" width="890.118" height="518.74" viewBox="0 0 890.118 518.74"><path d="M516.474 112.25h286.112v122.38H516.474zm71.286 178.33l-71.607-55.95h286.432l-71.61 55.95-71.607 55.952zM731.193 56.125l71.68 56.126h-286.72l71.68-56.123L659.513 0zM714.667 378.28h143.466v61.364H714.667zm35.903 89.417l-35.903-28.052h143.61l-35.9 28.052-35.904 28.052zm71.806-117.53l35.902 28.113h-143.61l35.903-28.112 35.905-28.11zm-264.086 90.72h73.917V472.5H558.29zm18.5 46.07l-18.5-14.455h73.992l-18.498 14.454-18.498 14.452zm36.994-60.555l18.498 14.484H558.29l18.5-14.484 18.496-14.483zM460.64 339.19h51.44v22.002h-51.44zm12.874 32.06l-12.873-10.058h51.495L499.26 371.25l-12.873 10.058zm25.746-42.14l12.873 10.08H460.64l12.874-10.08 12.873-10.08zM112.15 223.135h255.813v109.42H112.15zm192.075-50.025l64.025 50.025h-256.1l64.026-50.026 64.024-50.03zM175.982 382.735l-64.09-50.18H368.25l-64.09 50.18-64.09 50.182zm-150.87 26.343h111.253v47.586H25.112zm83.41-21.754l27.843 21.754H25l27.84-21.754 27.842-21.753zm-55.682 91.14L25 456.664h111.365l-27.842 21.8-27.84 21.8zM240.07 28.906h73.918v31.616H240.07zm55.42-14.453l18.498 14.453h-73.99l18.496-14.453L276.992 0zm-36.996 60.553l-18.497-14.484h73.99L295.49 75.006 276.992 89.49zM71.197 49.5h51.44v22h-51.44zm38.567-10.06l12.873 10.06h-51.49L84.02 39.44l12.87-10.056zM84.018 81.582l-12.873-10.08h51.493l-12.873 10.08-12.873 10.08zm275.18 40.395h51.44v22.003h-51.44zm38.566-10.057l12.873 10.058h-51.49l12.872-10.06 12.87-10.057zm-25.746 42.14l-12.873-10.08h51.493l-12.873 10.08-12.873 10.08z" opacity=".05" fill="#fff"/></svg>