<?xml version="1.0" encoding="utf-8"?>
<!-- Generator: Adobe Illustrator 17.0.2, SVG Export Plug-In . SVG Version: 6.00 Build 0)  -->
<!DOCTYPE svg PUBLIC "-//W3C//DTD SVG 1.1//EN" "http://www.w3.org/Graphics/SVG/1.1/DTD/svg11.dtd">
<svg version="1.1" id="Layer_1" xmlns="http://www.w3.org/2000/svg" xmlns:xlink="http://www.w3.org/1999/xlink" x="0px" y="0px"
	 width="890.118px" height="518.74px" viewBox="0 -22.942 890.118 518.74" enable-background="new 0 -22.942 890.118 518.74"
	 xml:space="preserve">
<g>
	<g opacity="0.07">
		<rect x="55.745" y="217.798" fill="#FFFFFF" width="339" height="145"/>
		<polygon fill="#FFFFFF" points="310.28,151.504 395.125,217.798 225.436,217.798 55.745,217.798 140.591,151.504 225.436,85.21 		
			"/>
		<polygon fill="#FFFFFF" points="140.335,429.298 55.404,362.798 225.265,362.798 395.125,362.798 310.195,429.298 
			225.265,495.798 		"/>
	</g>
	<g opacity="0.07">
		<rect x="0.112" y="43.556" fill="#FFFFFF" width="111.253" height="47.586"/>
		<polygon fill="#FFFFFF" points="83.523,21.802 111.365,43.556 55.682,43.556 0,43.556 27.841,21.802 55.682,0.049 		"/>
		<polygon fill="#FFFFFF" points="27.841,112.942 0,91.142 55.682,91.142 111.365,91.142 83.523,112.942 55.682,134.741 		"/>
	</g>
	<g opacity="0.07">
		<rect x="240.071" y="5.964" fill="#FFFFFF" width="73.917" height="31.616"/>
		<polygon fill="#FFFFFF" points="295.489,-8.49 313.988,5.964 276.992,5.964 239.996,5.964 258.494,-8.49 276.992,-22.942 		"/>
		<polygon fill="#FFFFFF" points="258.494,52.064 239.996,37.58 276.992,37.58 313.988,37.58 295.489,52.064 276.992,66.547 		"/>
	</g>
	<g opacity="0.07">
		<rect x="362.197" y="74.187" fill="#FFFFFF" width="51.44" height="22.003"/>
		<polygon fill="#FFFFFF" points="400.764,64.129 413.637,74.187 387.891,74.187 362.145,74.187 375.018,64.129 387.891,54.071 		
			"/>
		<polygon fill="#FFFFFF" points="375.018,106.27 362.145,96.19 387.891,96.19 413.637,96.19 400.764,106.27 387.891,116.349 		"/>
	</g>
</g>
<g>
	<g opacity="0.07">
		<rect x="463.533" y="110.058" fill="#FFFFFF" width="339" height="145"/>
		<polygon fill="#FFFFFF" points="547.998,321.352 463.153,255.058 632.842,255.058 802.533,255.058 717.687,321.352 
			632.842,387.646 		"/>
		<polygon fill="#FFFFFF" points="717.943,43.558 802.874,110.058 633.013,110.058 463.153,110.058 548.083,43.558 633.013,-22.942 
					"/>
	</g>
	<g opacity="0.07">
		<rect x="746.913" y="381.714" fill="#FFFFFF" width="111.253" height="47.586"/>
		<polygon fill="#FFFFFF" points="774.755,451.054 746.913,429.3 802.596,429.3 858.278,429.3 830.437,451.054 802.596,472.807 		
			"/>
		<polygon fill="#FFFFFF" points="830.437,359.914 858.278,381.714 802.596,381.714 746.913,381.714 774.755,359.914 
			802.596,338.115 		"/>
	</g>
	<g opacity="0.07">
		<rect x="544.29" y="435.276" fill="#FFFFFF" width="73.917" height="31.616"/>
		<polygon fill="#FFFFFF" points="562.788,481.345 544.29,466.892 581.286,466.892 618.281,466.892 599.784,481.345 
			581.286,495.798 		"/>
		<polygon fill="#FFFFFF" points="599.784,420.792 618.281,435.276 581.286,435.276 544.29,435.276 562.788,420.792 
			581.286,406.308 		"/>
	</g>
	<g opacity="0.07">
		<rect x="444.641" y="376.666" fill="#FFFFFF" width="51.44" height="22.003"/>
		<polygon fill="#FFFFFF" points="457.514,408.727 444.641,398.668 470.387,398.668 496.133,398.668 483.26,408.727 
			470.387,418.785 		"/>
		<polygon fill="#FFFFFF" points="483.26,366.586 496.133,376.666 470.387,376.666 444.641,376.666 457.514,366.586 
			470.387,356.507 		"/>
	</g>
</g>
</svg>
