<svg xmlns="http://www.w3.org/2000/svg" width="890.118" height="518.74" viewBox="0 0 890.118 518.74"><path d="M55.745 240.74h339v145h-339zm254.535-66.294l84.845 66.294H55.745l84.846-66.294 84.848-66.294zM140.335 452.24l-84.93-66.5h339.72l-84.93 66.5-84.93 66.5zM.112 66.498h111.253v47.586H.112zm83.41-21.754l27.843 21.754H0l27.84-21.754L55.683 22.99zm-55.682 91.14L0 114.084h111.365l-27.842 21.8-27.84 21.8zM240.07 28.906h73.918v31.616H240.07zm55.42-14.454l18.498 14.454h-73.992l18.498-14.454L276.992 0zm-36.996 60.554l-18.498-14.484h73.992l-18.5 14.484-18.496 14.483zM362.197 97.13h51.44v22.002h-51.44zm38.567-10.06l12.873 10.06h-51.49l12.872-10.06 12.87-10.057zm-25.746 42.142l-12.873-10.08h51.493l-12.873 10.08-12.873 10.08zM463.533 133h339v145h-339zm84.465 211.294L463.153 278h339.38l-84.846 66.294-84.845 66.294zM717.943 66.5l84.93 66.5h-339.72l84.93-66.5L633.013 0zm28.97 338.156h111.253v47.586H746.913zm27.842 69.34l-27.842-21.754h111.365l-27.84 21.754-27.842 21.753zm55.682-91.14l27.84 21.8H746.914l27.842-21.8 27.84-21.8zM544.29 458.218h73.917v31.616H544.29zm18.498 46.07l-18.498-14.454h73.99l-18.495 14.453-18.498 14.453zm36.996-60.554l18.497 14.484h-73.99l18.5-14.484 18.497-14.484zM444.64 399.608h51.44v22.003h-51.44zm12.874 32.062l-12.873-10.06h51.495l-12.873 10.06-12.872 10.057zm25.746-42.142l12.873 10.08H444.64l12.874-10.08 12.873-10.08z" opacity=".07" fill="#fff"/></svg>