<?xml version="1.0" encoding="utf-8"?>
<!-- Generator: Adobe Illustrator 17.0.2, SVG Export Plug-In . SVG Version: 6.00 Build 0)  -->
<!DOCTYPE svg PUBLIC "-//W3C//DTD SVG 1.1//EN" "http://www.w3.org/Graphics/SVG/1.1/DTD/svg11.dtd">
<svg version="1.1" id="Layer_1" xmlns="http://www.w3.org/2000/svg" xmlns:xlink="http://www.w3.org/1999/xlink" x="0px" y="0px"
	 width="890.118px" height="518.74px" viewBox="0 0 890.118 518.74" enable-background="new 0 0 890.118 518.74"
	 xml:space="preserve">
<g>
	<g opacity="0.05">
		<rect x="516.474" y="112.251" fill="#FFFFFF" width="286.112" height="122.379"/>
		<polygon fill="#FFFFFF" points="587.761,290.581 516.153,234.629 659.369,234.629 802.586,234.629 730.977,290.581 
			659.369,346.532 		"/>
		<polygon fill="#FFFFFF" points="731.193,56.125 802.874,112.251 659.513,112.251 516.153,112.251 587.833,56.125 659.513,0 		"/>
	</g>
	<g opacity="0.05">
		<rect x="714.667" y="378.28" fill="#FFFFFF" width="143.466" height="61.364"/>
		<polygon fill="#FFFFFF" points="750.571,467.697 714.667,439.645 786.473,439.645 858.278,439.645 822.376,467.697 
			786.473,495.749 		"/>
		<polygon fill="#FFFFFF" points="822.376,350.168 858.278,378.28 786.473,378.28 714.667,378.28 750.571,350.168 786.473,322.057 
					"/>
	</g>
	<g opacity="0.05">
		<rect x="558.29" y="440.886" fill="#FFFFFF" width="73.917" height="31.616"/>
		<polygon fill="#FFFFFF" points="576.789,486.956 558.29,472.502 595.286,472.502 632.282,472.502 613.784,486.956 
			595.286,501.408 		"/>
		<polygon fill="#FFFFFF" points="613.784,426.402 632.282,440.886 595.286,440.886 558.29,440.886 576.789,426.402 
			595.286,411.919 		"/>
	</g>
	<g opacity="0.05">
		<rect x="460.641" y="339.189" fill="#FFFFFF" width="51.44" height="22.003"/>
		<polygon fill="#FFFFFF" points="473.514,371.25 460.641,361.192 486.387,361.192 512.133,361.192 499.26,371.25 486.387,381.308 
					"/>
		<polygon fill="#FFFFFF" points="499.26,329.109 512.133,339.189 486.387,339.189 460.641,339.189 473.514,329.109 486.387,319.03 
					"/>
	</g>
</g>
<g>
	<g opacity="0.05">
		<rect x="112.15" y="223.135" fill="#FFFFFF" width="255.813" height="109.419"/>
		<polygon fill="#FFFFFF" points="304.225,173.109 368.25,223.135 240.2,223.135 112.15,223.135 176.176,173.109 240.2,123.083 		
			"/>
		<polygon fill="#FFFFFF" points="175.982,382.735 111.893,332.554 240.071,332.554 368.25,332.554 304.16,382.735 240.071,432.917 
					"/>
	</g>
	<g opacity="0.05">
		<rect x="25.112" y="409.078" fill="#FFFFFF" width="111.253" height="47.586"/>
		<polygon fill="#FFFFFF" points="108.523,387.324 136.365,409.078 80.682,409.078 25,409.078 52.841,387.324 80.682,365.571 		"/>
		<polygon fill="#FFFFFF" points="52.841,478.464 25,456.664 80.682,456.664 136.365,456.664 108.523,478.464 80.682,500.263 		"/>
	</g>
	<g opacity="0.05">
		<rect x="240.071" y="28.906" fill="#FFFFFF" width="73.917" height="31.616"/>
		<polygon fill="#FFFFFF" points="295.49,14.453 313.988,28.906 276.992,28.906 239.997,28.906 258.494,14.453 276.992,0 		"/>
		<polygon fill="#FFFFFF" points="258.494,75.006 239.997,60.522 276.992,60.522 313.988,60.522 295.49,75.006 276.992,89.49 		"/>
	</g>
	<g opacity="0.05">
		<rect x="71.197" y="49.499" fill="#FFFFFF" width="51.44" height="22.003"/>
		<polygon fill="#FFFFFF" points="109.764,39.441 122.637,49.5 96.891,49.5 71.145,49.5 84.018,39.441 96.891,29.383 		"/>
		<polygon fill="#FFFFFF" points="84.018,81.582 71.145,71.502 96.891,71.502 122.637,71.502 109.764,81.582 96.891,91.661 		"/>
	</g>
	<g opacity="0.05">
		<rect x="359.197" y="121.977" fill="#FFFFFF" width="51.44" height="22.003"/>
		<polygon fill="#FFFFFF" points="397.764,111.919 410.637,121.978 384.891,121.978 359.145,121.978 372.018,111.919 
			384.891,101.861 		"/>
		<polygon fill="#FFFFFF" points="372.018,154.06 359.145,143.98 384.891,143.98 410.637,143.98 397.764,154.06 384.891,164.139 		
			"/>
	</g>
</g>
</svg>
