<svg xmlns="http://www.w3.org/2000/svg" width="890.118" height="518.74" viewBox="0 -22.942 890.118 518.74" enable-background="new 0 -22.942 890.118 518.74"><path d="M55.745 217.798h339v145h-339zm254.535-66.294l84.845 66.294H55.745l84.846-66.294L225.44 85.21zM140.335 429.298l-84.93-66.5h339.72l-84.93 66.5-84.93 66.5zM.112 43.556h111.253v47.586H.112zm83.41-21.754l27.843 21.754H0l27.84-21.754L55.683.05zm-55.682 91.14L0 91.142h111.365l-27.842 21.8-27.84 21.8zM240.07 5.964h73.918V37.58H240.07zM295.49-8.49l18.498 14.454h-73.992L258.494-8.49l18.498-14.452zm-36.996 60.554L239.996 37.58h73.992l-18.5 14.484-18.496 14.483zm103.703 22.123h51.44V96.19h-51.44zm38.567-10.057l12.873 10.057h-51.49L375.02 64.13l12.87-10.06zm-25.746 42.14l-12.873-10.08h51.493l-12.873 10.08-12.873 10.08zM463.533 110.058h339v145h-339zm84.465 211.294l-84.845-66.294h339.38l-84.846 66.294-84.845 66.294zM717.943 43.558l84.93 66.5h-339.72l84.93-66.5 84.93-66.5zm28.97 338.156h111.253V429.3H746.913zm27.842 69.34L746.913 429.3h111.365l-27.84 21.754-27.842 21.753zm55.682-91.14l27.84 21.8H746.914l27.842-21.8 27.84-21.8zM544.29 435.276h73.917v31.616H544.29zm18.498 46.07L544.29 466.89h73.99l-18.495 14.453-18.498 14.453zm36.996-60.554l18.497 14.484h-73.99l18.5-14.484 18.497-14.484zM444.64 376.666h51.44v22.003h-51.44zm12.874 32.06l-12.873-10.06h51.495l-12.873 10.06-12.872 10.06zm25.746-42.14l12.873 10.08H444.64l12.874-10.08 12.873-10.08z" opacity=".02" fill="#fff"/></svg>