<?xml version="1.0" encoding="utf-8"?>
<!-- Generator: Adobe Illustrator 17.0.2, SVG Export Plug-In . SVG Version: 6.00 Build 0)  -->
<!DOCTYPE svg PUBLIC "-//W3C//DTD SVG 1.1//EN" "http://www.w3.org/Graphics/SVG/1.1/DTD/svg11.dtd">
<svg version="1.1" id="Layer_1" xmlns="http://www.w3.org/2000/svg" xmlns:xlink="http://www.w3.org/1999/xlink" x="0px" y="0px"
	 width="395.125px" height="495.798px" viewBox="0 0 395.125 495.798" enable-background="new 0 0 395.125 495.798"
	 xml:space="preserve">
<g>
	<rect x="0.38" y="217.798" fill="#F0EFEF" width="339" height="145"/>
	<polygon fill="#F0EFEF" points="169.689,85.21 254.534,151.504 339.38,217.798 169.689,217.798 0,217.798 84.845,151.504 	"/>
	<polygon fill="#F0EFEF" points="169.86,495.798 84.93,429.298 0,362.798 169.86,362.798 339.721,362.798 254.79,429.298 	"/>
</g>
<g>
	<rect x="283.76" y="43.556" fill="#F0EFEF" width="111.253" height="47.586"/>
	<polygon fill="#F0EFEF" points="339.443,0.049 367.284,21.802 395.125,43.556 339.443,43.556 283.76,43.556 311.602,21.802 	"/>
	<polygon fill="#F0EFEF" points="339.443,134.741 311.602,112.942 283.76,91.142 339.443,91.142 395.125,91.142 367.284,112.942 	
		"/>
</g>
</svg>
